<svg width="30" height="30" viewBox="0 0 30 30" fill="none" xmlns="http://www.w3.org/2000/svg">
<circle cx="15" cy="15" r="15" fill="#C71B1A" fill-opacity="0.1"/>
<path d="M12.3529 7.60645C12.3502 7.61001 6 13.7738 6 17.3779C6 20.8683 8.84993 23.7079 12.3529 23.7079C15.856 23.7079 18.7059 20.8683 18.7059 17.3779C18.7059 13.7738 12.3557 7.61001 12.3529 7.60645ZM14.4706 17.8843H12.8824V19.4725H11.8235V17.8843H10.2353V16.8255H11.8235V15.2372H12.8824V16.8255H14.4706V17.8843Z" fill="#C71B1A"/>
<path d="M18.7059 6C17.745 7.00945 16.7199 8.14916 15.6504 9.62372C16.8925 11.0969 18.2946 12.9579 19.0884 14.7077H20.8236V15.7665H19.4959C19.959 17.2028 19.7782 18.6337 19.2944 19.9676C21.9376 19.6624 24.0001 17.3272 24.0001 14.5004C24.0001 11.3584 18.7085 6.00353 18.7059 6Z" fill="#C71B1A"/>
</svg>
