<svg width="24" height="24" viewBox="0 0 24 24" fill="none" xmlns="http://www.w3.org/2000/svg">
<path d="M8.79761 6.61328H21.3064L14.4733 11.9791C14.3361 12.0841 14.172 12.1479 14 12.1634C13.8271 12.1476 13.662 12.0838 13.5235 11.9791L8.64027 8.14314C8.5886 8.10129 8.5294 8.0697 8.46587 8.05007C8.70282 7.71804 8.82695 7.31873 8.82001 6.91087C8.81796 6.81134 8.81048 6.71199 8.79761 6.61328ZM5.61654 3.16234C5.63227 3.16501 5.65814 3.17487 5.71441 3.20101C5.82561 3.25381 6.00241 3.38981 6.17547 3.57941C6.52401 3.95914 6.87227 4.53434 7.05307 4.91407C7.05867 4.92527 7.06454 4.93754 7.06987 4.95007C7.58294 5.83034 7.80427 6.50367 7.81094 6.92607C7.81814 7.35034 7.70427 7.53301 7.34454 7.73967L6.41654 8.27461C5.81201 8.62261 5.52641 9.24634 5.45547 9.82821C5.38427 10.4103 5.48907 10.9759 5.74801 11.4231L8.03867 15.3711C8.29814 15.8181 8.74107 16.1919 9.28267 16.4215C9.82481 16.6517 10.5104 16.7167 11.1149 16.3695L12.0429 15.8357C12.4024 15.6295 12.6197 15.6253 12.9848 15.8423C13.3509 16.0599 13.8264 16.5855 14.3373 17.4663C14.3445 17.4794 14.3515 17.4903 14.3597 17.5029C14.5992 17.8482 14.9253 18.4341 15.0827 18.9247C15.1608 19.1685 15.1915 19.3887 15.1816 19.5106C15.1707 19.633 15.168 19.6205 15.1357 19.6397L14.4296 20.0445C12.6557 20.8138 11.0299 20.6402 9.57681 19.8866C8.12107 19.1298 6.85574 17.7631 5.97361 16.1586C5.97067 16.1554 5.96934 16.1514 5.96694 16.1493L4.03467 12.8191C4.03147 12.8159 4.03014 12.813 4.02747 12.8087C3.07147 11.2461 2.51441 9.47194 2.58427 7.83967C2.65414 6.20981 3.31547 4.72394 4.87334 3.58074L5.57974 3.17727C5.59601 3.16794 5.60134 3.16074 5.61654 3.16234ZM5.62374 2.17007C5.43681 2.16714 5.24614 2.20634 5.07467 2.30581L4.32774 2.73541C4.31094 2.74501 4.29547 2.75487 4.28027 2.76447C2.48321 4.07967 1.65574 5.91061 1.57494 7.79781C1.49414 9.68421 2.12401 11.6311 3.16454 13.3333L5.09041 16.6519L5.08587 16.6421C6.04721 18.389 7.42481 19.9045 9.10827 20.7775C10.7925 21.6519 12.7989 21.8546 14.8427 20.9634C14.8595 20.9562 14.8765 20.9482 14.8917 20.9389L15.6397 20.5093C15.9856 20.3125 16.1595 19.9295 16.1877 19.5951C16.2168 19.2618 16.1488 18.9373 16.0456 18.6175C15.8435 17.9853 15.4909 17.3711 15.1997 16.9498C14.6496 16.0034 14.1184 15.3466 13.5045 14.9794C13.208 14.8011 12.869 14.7056 12.523 14.7029C12.177 14.7003 11.8366 14.7905 11.5373 14.9642L10.6093 15.4991C10.3352 15.657 10.0147 15.6386 9.67734 15.4959C9.34161 15.3533 9.03067 15.0679 8.91521 14.8679L6.62454 10.9202C6.50881 10.7191 6.41414 10.309 6.45894 9.94741C6.50214 9.58687 6.64854 9.30447 6.92294 9.14634L7.82454 8.62794C7.84801 8.74874 7.91627 8.85834 8.01521 8.93194L12.8987 12.7687C13.206 13.0119 13.5803 13.1551 13.9715 13.1791C13.9909 13.1802 14.0104 13.1802 14.0299 13.1791C14.4206 13.155 14.7945 13.0118 15.1013 12.7687L21.8272 7.48501V16.2141C21.8272 16.3469 21.6757 16.5218 21.3787 16.5218H16.7224C16.656 16.5214 16.5902 16.534 16.5287 16.5591C16.4672 16.5842 16.4113 16.6212 16.3642 16.6679C16.317 16.7147 16.2796 16.7703 16.254 16.8316C16.2285 16.8929 16.2153 16.9586 16.2152 17.025C16.2152 17.3031 16.4424 17.5293 16.7224 17.5277H21.3787C22.1397 17.5277 22.8392 16.9775 22.8392 16.2141V6.92101C22.8392 6.15701 22.1397 5.60714 21.3787 5.60714H8.52054C8.37814 5.25114 8.19014 4.87381 7.95334 4.46367C7.73174 4.00234 7.37227 3.39247 6.92241 2.90207C6.69521 2.65354 6.45014 2.43327 6.14374 2.29087V2.29221C5.98076 2.21586 5.80367 2.17427 5.62374 2.17007Z" fill="#7E7E7E"/>
</svg>
