<svg width="55" height="55" viewBox="0 0 55 55" fill="none" xmlns="http://www.w3.org/2000/svg">
<g filter="url(#filter0_d_1096_3943)">
<circle cx="27.5" cy="23.5" r="17.5" fill="#FAFAFA"/>
</g>
<path d="M26.0874 25.0333C26.0246 25.0333 24.7072 25.0337 24.0996 25.0331C23.7868 25.0329 23.6752 24.9205 23.6752 24.6057C23.6747 23.7971 23.6747 22.9885 23.6752 22.1799C23.6754 21.8691 23.7934 21.7505 24.1022 21.7503C24.7098 21.7499 26.02 21.7501 26.0874 21.7501V19.9897C26.0878 19.1949 26.2296 18.4341 26.6334 17.7375C27.0468 17.0245 27.6484 16.5361 28.4194 16.2537C28.9132 16.0727 29.4258 16.0005 29.9498 16.0001C30.6054 15.9997 31.261 16.0003 31.9168 16.0015C32.1986 16.0019 32.3236 16.1265 32.3242 16.4103C32.3254 17.1709 32.3254 17.9315 32.3242 18.6919C32.3238 18.9787 32.204 19.0939 31.9158 19.0971C31.3784 19.1029 30.8406 19.0993 30.3038 19.1209C29.7616 19.1209 29.4764 19.3857 29.4764 19.9469C29.4634 20.5405 29.471 21.1347 29.471 21.7499C29.5218 21.7499 31.0648 21.7497 31.786 21.7499C32.1136 21.7499 32.2256 21.8625 32.2256 22.1919C32.2256 22.9961 32.2254 23.8005 32.2248 24.6047C32.2246 24.9293 32.1194 25.0329 31.7898 25.0331C31.0686 25.0335 29.5316 25.0333 29.4644 25.0333V31.5423C29.4644 31.8893 29.3552 31.9999 29.0128 31.9999H26.5082C26.2056 31.9999 26.0876 31.8823 26.0876 31.5797L26.0874 25.0333Z" fill="#2C2E3D"/>
<defs>
<filter id="filter0_d_1096_3943" x="0" y="0" width="55" height="55" filterUnits="userSpaceOnUse" color-interpolation-filters="sRGB">
<feFlood flood-opacity="0" result="BackgroundImageFix"/>
<feColorMatrix in="SourceAlpha" type="matrix" values="0 0 0 0 0 0 0 0 0 0 0 0 0 0 0 0 0 0 127 0" result="hardAlpha"/>
<feOffset dy="4"/>
<feGaussianBlur stdDeviation="5"/>
<feComposite in2="hardAlpha" operator="out"/>
<feColorMatrix type="matrix" values="0 0 0 0 0 0 0 0 0 0 0 0 0 0 0 0 0 0 0.05 0"/>
<feBlend mode="normal" in2="BackgroundImageFix" result="effect1_dropShadow_1096_3943"/>
<feBlend mode="normal" in="SourceGraphic" in2="effect1_dropShadow_1096_3943" result="shape"/>
</filter>
</defs>
</svg>
