<svg width="22" height="22" viewBox="0 0 22 22" fill="none" xmlns="http://www.w3.org/2000/svg">
<g clip-path="url(#clip0_492_3571)">
<path d="M20.4722 2.99869L19.0008 1.5272C18.9026 1.42907 18.9442 1.25904 19.0779 1.222C19.4433 1.12076 19.8557 1.21087 20.1499 1.50447L20.4955 1.85004C20.7849 2.13943 20.8792 2.55178 20.7777 2.92087C20.7409 3.05493 20.5706 3.09705 20.4722 2.99869ZM2.9992 20.4728C3.09732 20.5709 3.05571 20.7409 2.92201 20.778C2.55664 20.8793 2.14419 20.7891 1.85004 20.4955L1.50447 20.15C1.21508 19.8606 1.12076 19.4482 1.22223 19.0791C1.25908 18.945 1.42935 18.9029 1.5277 19.0013L2.9992 20.4728ZM15.1168 8.78479L8.78479 15.1168C8.75074 15.1508 8.71032 15.1779 8.66583 15.1963C8.62135 15.2147 8.57367 15.2242 8.52551 15.2242C8.47736 15.2242 8.42968 15.2147 8.3852 15.1963C8.34071 15.1779 8.30029 15.1508 8.26624 15.1168L6.88366 13.7342C6.84962 13.7002 6.82261 13.6597 6.80418 13.6153C6.78575 13.5708 6.77627 13.5231 6.77627 13.4749C6.77627 13.4268 6.78575 13.3791 6.80418 13.3346C6.82261 13.2901 6.84962 13.2497 6.88366 13.2157L13.2157 6.88366C13.2845 6.81491 13.3777 6.7763 13.475 6.7763C13.5722 6.77631 13.6655 6.81495 13.7343 6.88371L15.1167 8.26619C15.1855 8.33496 15.2241 8.42823 15.2242 8.52548C15.2242 8.62273 15.1855 8.71601 15.1168 8.78479ZM20.4759 7.42742C20.6562 7.60772 20.9485 7.608 21.1292 7.42806L21.6482 6.90901C22.1169 6.44125 22.1176 5.68075 21.6482 5.2123L16.7877 0.351786C16.3199 -0.116895 15.5594 -0.117628 15.091 0.351786L14.5719 0.870836C14.392 1.05151 14.3923 1.34373 14.5726 1.52404L20.4759 7.42742ZM13.1005 1.08904C12.9181 0.906631 12.6225 0.906265 12.4396 1.08826L11.5559 1.97191C11.0885 2.43986 11.0885 3.20067 11.5559 3.66862L18.3313 10.444C18.7988 10.9115 19.5606 10.9115 20.028 10.444L20.9117 9.56036C21.0937 9.37749 21.0933 9.08187 20.9109 8.89941L13.1005 1.08904ZM8.90395 20.9154C9.08416 21.0956 9.37634 21.0956 9.5566 20.9154L10.4441 20.028C10.9115 19.56 10.9115 18.7992 10.4441 18.3313L3.66867 11.5559C3.20072 11.0884 2.43945 11.0884 1.97196 11.5559L1.08831 12.4395C0.906311 12.6225 0.906723 12.9181 1.08914 13.1005L8.90395 20.9154ZM1.45639 14.5049L7.4276 20.4761C7.60777 20.6563 7.60809 20.9483 7.42829 21.1288L6.90896 21.6482C6.4412 22.1168 5.68071 22.1176 5.21225 21.6482L0.351786 16.7877C-0.116803 16.32 -0.11772 15.5595 0.351786 15.091L0.937889 14.5049C1.00665 14.4361 1.0999 14.3975 1.19714 14.3975C1.29438 14.3975 1.38763 14.4361 1.45639 14.5049Z" fill="#E2C488"/>
</g>
<defs>
<clipPath id="clip0_492_3571">
<rect width="22" height="22" fill="white"/>
</clipPath>
</defs>
</svg>
