<svg width="30" height="30" viewBox="0 0 30 30" fill="none" xmlns="http://www.w3.org/2000/svg">
<circle cx="15" cy="15" r="15" fill="#3D8A87" fill-opacity="0.1"/>
<path d="M18.0001 24C17.9117 24 17.8269 23.9649 17.7644 23.9024C17.7019 23.8399 17.6667 23.7551 17.6667 23.6667V6.33333C17.6667 6.24493 17.7019 6.16014 17.7644 6.09763C17.8269 6.03512 17.9117 6 18.0001 6C18.0885 6 18.1733 6.03512 18.2358 6.09763C18.2983 6.16014 18.3334 6.24493 18.3334 6.33333V23.6667C18.3334 23.7551 18.2983 23.8399 18.2358 23.9024C18.1733 23.9649 18.0885 24 18.0001 24Z" fill="#3D8A87"/>
<path d="M19.3334 9.55567H18.0001C17.9117 9.55567 17.8269 9.52055 17.7644 9.45804C17.7019 9.39552 17.6667 9.31074 17.6667 9.22233C17.6667 9.13393 17.7019 9.04914 17.7644 8.98663C17.8269 8.92412 17.9117 8.889 18.0001 8.889H19.3334C19.4218 8.889 19.5066 8.92412 19.5691 8.98663C19.6316 9.04914 19.6667 9.13393 19.6667 9.22233C19.6667 9.31074 19.6316 9.39552 19.5691 9.45804C19.5066 9.52055 19.4218 9.55567 19.3334 9.55567ZM19.3334 8.111H18.0001C17.9117 8.111 17.8269 8.07588 17.7644 8.01337C17.7019 7.95086 17.6667 7.86607 17.6667 7.77767C17.6667 7.68926 17.7019 7.60448 17.7644 7.54196C17.8269 7.47945 17.9117 7.44433 18.0001 7.44433H19.3334C19.4218 7.44433 19.5066 7.47945 19.5691 7.54196C19.6316 7.60448 19.6667 7.68926 19.6667 7.77767C19.6667 7.86607 19.6316 7.95086 19.5691 8.01337C19.5066 8.07588 19.4218 8.111 19.3334 8.111ZM19.3334 13.889H18.0001C17.9117 13.889 17.8269 13.8539 17.7644 13.7914C17.7019 13.7289 17.6667 13.6441 17.6667 13.5557C17.6667 13.4673 17.7019 13.3825 17.7644 13.32C17.8269 13.2575 17.9117 13.2223 18.0001 13.2223H19.3334C19.4218 13.2223 19.5066 13.2575 19.5691 13.32C19.6316 13.3825 19.6667 13.4673 19.6667 13.5557C19.6667 13.6441 19.6316 13.7289 19.5691 13.7914C19.5066 13.8539 19.4218 13.889 19.3334 13.889ZM19.3334 12.4443H18.0001C17.9117 12.4443 17.8269 12.4092 17.7644 12.3467C17.7019 12.2842 17.6667 12.1994 17.6667 12.111C17.6667 12.0226 17.7019 11.9378 17.7644 11.8753C17.8269 11.8128 17.9117 11.7777 18.0001 11.7777H19.3334C19.4218 11.7777 19.5066 11.8128 19.5691 11.8753C19.6316 11.9378 19.6667 12.0226 19.6667 12.111C19.6667 12.1994 19.6316 12.2842 19.5691 12.3467C19.5066 12.4092 19.4218 12.4443 19.3334 12.4443ZM19.3334 18.2223H18.0001C17.9117 18.2223 17.8269 18.1872 17.7644 18.1247C17.7019 18.0622 17.6667 17.9774 17.6667 17.889C17.6667 17.8006 17.7019 17.7158 17.7644 17.6533C17.8269 17.5908 17.9117 17.5557 18.0001 17.5557H19.3334C19.4218 17.5557 19.5066 17.5908 19.5691 17.6533C19.6316 17.7158 19.6667 17.8006 19.6667 17.889C19.6667 17.9774 19.6316 18.0622 19.5691 18.1247C19.5066 18.1872 19.4218 18.2223 19.3334 18.2223ZM19.3334 16.7777H18.0001C17.9117 16.7777 17.8269 16.7425 17.7644 16.68C17.7019 16.6175 17.6667 16.5327 17.6667 16.4443C17.6667 16.3559 17.7019 16.2711 17.7644 16.2086C17.8269 16.1461 17.9117 16.111 18.0001 16.111H19.3334C19.4218 16.111 19.5066 16.1461 19.5691 16.2086C19.6316 16.2711 19.6667 16.3559 19.6667 16.4443C19.6667 16.5327 19.6316 16.6175 19.5691 16.68C19.5066 16.7425 19.4218 16.7777 19.3334 16.7777ZM19.3334 22.5557H18.0001C17.9117 22.5557 17.8269 22.5205 17.7644 22.458C17.7019 22.3955 17.6667 22.3107 17.6667 22.2223C17.6667 22.1339 17.7019 22.0491 17.7644 21.9866C17.8269 21.9241 17.9117 21.889 18.0001 21.889H19.3334C19.4218 21.889 19.5066 21.9241 19.5691 21.9866C19.6316 22.0491 19.6667 22.1339 19.6667 22.2223C19.6667 22.3107 19.6316 22.3955 19.5691 22.458C19.5066 22.5205 19.4218 22.5557 19.3334 22.5557ZM19.3334 21.111H18.0001C17.9117 21.111 17.8269 21.0759 17.7644 21.0134C17.7019 20.9509 17.6667 20.8661 17.6667 20.7777C17.6667 20.6893 17.7019 20.6045 17.7644 20.542C17.8269 20.4795 17.9117 20.4443 18.0001 20.4443H19.3334C19.4218 20.4443 19.5066 20.4795 19.5691 20.542C19.6316 20.6045 19.6667 20.6893 19.6667 20.7777C19.6667 20.8661 19.6316 20.9509 19.5691 21.0134C19.5066 21.0759 19.4218 21.111 19.3334 21.111ZM20.6667 19.6667H18.0001C17.9117 19.6667 17.8269 19.6315 17.7644 19.569C17.7019 19.5065 17.6667 19.4217 17.6667 19.3333C17.6667 19.2449 17.7019 19.1601 17.7644 19.0976C17.8269 19.0351 17.9117 19 18.0001 19H20.6667C20.7552 19 20.8399 19.0351 20.9025 19.0976C20.965 19.1601 21.0001 19.2449 21.0001 19.3333C21.0001 19.4217 20.965 19.5065 20.9025 19.569C20.8399 19.6315 20.7552 19.6667 20.6667 19.6667ZM20.6667 11H18.0001C17.9117 11 17.8269 10.9649 17.7644 10.9024C17.7019 10.8399 17.6667 10.7551 17.6667 10.6667C17.6667 10.5783 17.7019 10.4935 17.7644 10.431C17.8269 10.3685 17.9117 10.3333 18.0001 10.3333H20.6667C20.7552 10.3333 20.8399 10.3685 20.9025 10.431C20.965 10.4935 21.0001 10.5783 21.0001 10.6667C21.0001 10.7551 20.965 10.8399 20.9025 10.9024C20.8399 10.9649 20.7552 11 20.6667 11ZM20.6667 15.3333H18.0001C17.9117 15.3333 17.8269 15.2982 17.7644 15.2357C17.7019 15.1732 17.6667 15.0884 17.6667 15C17.6667 14.9116 17.7019 14.8268 17.7644 14.7643C17.8269 14.7018 17.9117 14.6667 18.0001 14.6667H20.6667C20.7552 14.6667 20.8399 14.7018 20.9025 14.7643C20.965 14.8268 21.0001 14.9116 21.0001 15C21.0001 15.0884 20.965 15.1732 20.9025 15.2357C20.8399 15.2982 20.7552 15.3333 20.6667 15.3333ZM20.6667 6.66667H18.0001C17.9117 6.66667 17.8269 6.63155 17.7644 6.56904C17.7019 6.50652 17.6667 6.42174 17.6667 6.33333C17.6667 6.24493 17.7019 6.16014 17.7644 6.09763C17.8269 6.03512 17.9117 6 18.0001 6H20.6667C20.7552 6 20.8399 6.03512 20.9025 6.09763C20.965 6.16014 21.0001 6.24493 21.0001 6.33333C21.0001 6.42174 20.965 6.50652 20.9025 6.56904C20.8399 6.63155 20.7552 6.66667 20.6667 6.66667ZM20.6667 24H18.0001C17.9117 24 17.8269 23.9649 17.7644 23.9024C17.7019 23.8399 17.6667 23.7551 17.6667 23.6667C17.6667 23.5783 17.7019 23.4935 17.7644 23.431C17.8269 23.3685 17.9117 23.3333 18.0001 23.3333H20.6667C20.7552 23.3333 20.8399 23.3685 20.9025 23.431C20.965 23.4935 21.0001 23.5783 21.0001 23.6667C21.0001 23.7551 20.965 23.8399 20.9025 23.9024C20.8399 23.9649 20.7552 24 20.6667 24ZM16.0001 14C15.9117 14 15.8269 13.9649 15.7644 13.9024C15.7019 13.8399 15.6667 13.7551 15.6667 13.6667C15.6667 12.7477 14.9191 12 14.0001 12C13.9117 12 13.8269 11.9649 13.7644 11.9024C13.7019 11.8399 13.6667 11.7551 13.6667 11.6667C13.6667 11.5783 13.7019 11.4935 13.7644 11.431C13.8269 11.3685 13.9117 11.3333 14.0001 11.3333C15.2867 11.3333 16.3334 12.3803 16.3334 13.6667C16.3334 13.7551 16.2983 13.8399 16.2358 13.9024C16.1733 13.9649 16.0885 14 16.0001 14Z" fill="#3D8A87"/>
<path d="M16 17.8713C15.9116 17.8713 15.8268 17.8362 15.7643 17.7737C15.7018 17.7112 15.6667 17.6264 15.6667 17.538V13.6673C15.6667 13.5789 15.7018 13.4941 15.7643 13.4316C15.8268 13.3691 15.9116 13.334 16 13.334C16.0884 13.334 16.1732 13.3691 16.2357 13.4316C16.2982 13.4941 16.3333 13.5789 16.3333 13.6673V17.538C16.3333 17.6264 16.2982 17.7112 16.2357 17.7737C16.1732 17.8362 16.0884 17.8713 16 17.8713ZM14 12.0007H11.3333C11.2449 12.0007 11.1601 11.9655 11.0976 11.903C11.0351 11.8405 11 11.7557 11 11.6673C11 11.5789 11.0351 11.4941 11.0976 11.4316C11.1601 11.3691 11.2449 11.334 11.3333 11.334H14C14.0884 11.334 14.1732 11.3691 14.2357 11.4316C14.2982 11.4941 14.3333 11.5789 14.3333 11.6673C14.3333 11.7557 14.2982 11.8405 14.2357 11.903C14.1732 11.9655 14.0884 12.0007 14 12.0007Z" fill="#3D8A87"/>
<path d="M9.33333 14.0007C9.24493 14.0007 9.16014 13.9655 9.09763 13.903C9.03512 13.8405 9 13.7557 9 13.6673C9 12.381 10.0467 11.334 11.3333 11.334C11.4217 11.334 11.5065 11.3691 11.569 11.4316C11.6315 11.4941 11.6667 11.5789 11.6667 11.6673C11.6667 11.7557 11.6315 11.8405 11.569 11.903C11.5065 11.9655 11.4217 12.0007 11.3333 12.0007C10.4143 12.0007 9.66667 12.7483 9.66667 13.6673C9.66667 13.7557 9.63155 13.8405 9.56904 13.903C9.50652 13.9655 9.42174 14.0007 9.33333 14.0007Z" fill="#3D8A87"/>
<path d="M9.33333 17.8703C9.24493 17.8703 9.16014 17.8352 9.09763 17.7727C9.03512 17.7102 9 17.6254 9 17.537V13.6663C9 13.5779 9.03512 13.4932 9.09763 13.4306C9.16014 13.3681 9.24493 13.333 9.33333 13.333C9.42174 13.333 9.50652 13.3681 9.56904 13.4306C9.63155 13.4932 9.66667 13.5779 9.66667 13.6663V17.537C9.66667 17.6254 9.63155 17.7102 9.56904 17.7727C9.50652 17.8352 9.42174 17.8703 9.33333 17.8703ZM15.3333 18.5153C14.8363 18.5153 14.3333 18.1793 14.3333 17.537C14.3333 17.4486 14.3685 17.3638 14.431 17.3013C14.4935 17.2388 14.5783 17.2037 14.6667 17.2037C14.7551 17.2037 14.8399 17.2388 14.9024 17.3013C14.9649 17.3638 15 17.4486 15 17.537C15 17.8337 15.2777 17.8487 15.3333 17.8487C15.389 17.8487 15.6667 17.8337 15.6667 17.537C15.6667 17.4486 15.7018 17.3638 15.7643 17.3013C15.8268 17.2388 15.9116 17.2037 16 17.2037C16.0884 17.2037 16.1732 17.2388 16.2357 17.3013C16.2982 17.3638 16.3333 17.4486 16.3333 17.537C16.3333 18.1793 15.8303 18.5153 15.3333 18.5153Z" fill="#3D8A87"/>
<path d="M10 18.5158C9.503 18.5158 9 18.1798 9 17.5374C9 17.449 9.03512 17.3642 9.09763 17.3017C9.16014 17.2392 9.24493 17.2041 9.33333 17.2041C9.42174 17.2041 9.50652 17.2392 9.56904 17.3017C9.63155 17.3642 9.66667 17.449 9.66667 17.5374C9.66667 17.8341 9.94433 17.8491 10 17.8491C10.0557 17.8491 10.3333 17.8341 10.3333 17.5374C10.3333 17.449 10.3685 17.3642 10.431 17.3017C10.4935 17.2392 10.5783 17.2041 10.6667 17.2041C10.7551 17.2041 10.8399 17.2392 10.9024 17.3017C10.9649 17.3642 11 17.449 11 17.5374C11 18.1798 10.497 18.5158 10 18.5158Z" fill="#3D8A87"/>
<path d="M10.6668 17.9997C10.5784 17.9997 10.4936 17.9646 10.4311 17.902C10.3686 17.8395 10.3335 17.7547 10.3335 17.6663V13.6663C10.3335 13.5779 10.3686 13.4932 10.4311 13.4306C10.4936 13.3681 10.5784 13.333 10.6668 13.333C10.7552 13.333 10.84 13.3681 10.9025 13.4306C10.965 13.4932 11.0002 13.5779 11.0002 13.6663V17.6663C11.0002 17.7547 10.965 17.8395 10.9025 17.902C10.84 17.9646 10.7552 17.9997 10.6668 17.9997ZM14.6668 17.9997C14.5784 17.9997 14.4936 17.9646 14.4311 17.902C14.3686 17.8395 14.3335 17.7547 14.3335 17.6663V13.6663C14.3335 13.5779 14.3686 13.4932 14.4311 13.4306C14.4936 13.3681 14.5784 13.333 14.6668 13.333C14.7552 13.333 14.84 13.3681 14.9025 13.4306C14.965 13.4932 15.0002 13.5779 15.0002 13.6663V17.6663C15.0002 17.7547 14.965 17.8395 14.9025 17.902C14.84 17.9646 14.7552 17.9997 14.6668 17.9997Z" fill="#3D8A87"/>
<path d="M10.6668 23.0007C10.5784 23.0007 10.4936 22.9655 10.4311 22.903C10.3686 22.8405 10.3335 22.7557 10.3335 22.6673V17.6673C10.3335 17.5789 10.3686 17.4941 10.4311 17.4316C10.4936 17.3691 10.5784 17.334 10.6668 17.334C10.7552 17.334 10.84 17.3691 10.9025 17.4316C10.965 17.4941 11.0002 17.5789 11.0002 17.6673V22.6673C11.0002 22.7557 10.965 22.8405 10.9025 22.903C10.84 22.9655 10.7552 23.0007 10.6668 23.0007ZM14.6668 23.0007C14.5784 23.0007 14.4936 22.9655 14.4311 22.903C14.3686 22.8405 14.3335 22.7557 14.3335 22.6673V17.6673C14.3335 17.5789 14.3686 17.4941 14.4311 17.4316C14.4936 17.3691 14.5784 17.334 14.6668 17.334C14.7552 17.334 14.84 17.3691 14.9025 17.4316C14.965 17.4941 15.0002 17.5789 15.0002 17.6673V22.6673C15.0002 22.7557 14.965 22.8405 14.9025 22.903C14.84 22.9655 14.7552 23.0007 14.6668 23.0007ZM12.6668 23.0007C12.5784 23.0007 12.4936 22.9655 12.4311 22.903C12.3686 22.8405 12.3335 22.7557 12.3335 22.6673V17.6673C12.3335 17.5789 12.3686 17.4941 12.4311 17.4316C12.4936 17.3691 12.5784 17.334 12.6668 17.334C12.7552 17.334 12.84 17.3691 12.9025 17.4316C12.965 17.4941 13.0002 17.5789 13.0002 17.6673V22.6673C13.0002 22.7557 12.965 22.8405 12.9025 22.903C12.84 22.9655 12.7552 23.0007 12.6668 23.0007Z" fill="#3D8A87"/>
<path d="M13.6666 23.967C13.3249 23.967 13.0036 23.8523 12.7619 23.6443C12.4856 23.407 12.3333 23.0597 12.3333 22.6663C12.3333 22.5779 12.3684 22.4932 12.4309 22.4306C12.4934 22.3681 12.5782 22.333 12.6666 22.333C12.755 22.333 12.8398 22.3681 12.9023 22.4306C12.9648 22.4932 12.9999 22.5779 12.9999 22.6663C12.9999 23.134 13.3589 23.3003 13.6666 23.3003C13.9743 23.3003 14.3333 23.134 14.3333 22.6663C14.3333 22.5779 14.3684 22.4932 14.4309 22.4306C14.4934 22.3681 14.5782 22.333 14.6666 22.333C14.755 22.333 14.8398 22.3681 14.9023 22.4306C14.9648 22.4932 14.9999 22.5779 14.9999 22.6663C14.9999 23.5203 14.3293 23.967 13.6666 23.967Z" fill="#3D8A87"/>
<path d="M11.6668 23.9673C11.3252 23.9673 11.0038 23.8527 10.7622 23.6447C10.4858 23.4073 10.3335 23.06 10.3335 22.6667C10.3335 22.5783 10.3686 22.4935 10.4311 22.431C10.4936 22.3685 10.5784 22.3333 10.6668 22.3333C10.7552 22.3333 10.84 22.3685 10.9025 22.431C10.965 22.4935 11.0002 22.5783 11.0002 22.6667C11.0002 23.1343 11.3592 23.3007 11.6668 23.3007C11.9745 23.3007 12.3335 23.1343 12.3335 22.6667C12.3335 22.5783 12.3686 22.4935 12.4311 22.431C12.4936 22.3685 12.5784 22.3333 12.6668 22.3333C12.7552 22.3333 12.84 22.3685 12.9025 22.431C12.965 22.4935 13.0002 22.5783 13.0002 22.6667C13.0002 23.5207 12.3295 23.9673 11.6668 23.9673ZM12.6668 10.6667C11.4022 10.6667 10.3335 9.598 10.3335 8.33333C10.3335 7.06867 11.4022 6 12.6668 6C13.9315 6 15.0002 7.06867 15.0002 8.33333C15.0002 9.598 13.9315 10.6667 12.6668 10.6667ZM12.6668 6.66667C11.7635 6.66667 11.0002 7.43 11.0002 8.33333C11.0002 9.23667 11.7635 10 12.6668 10C13.5702 10 14.3335 9.23667 14.3335 8.33333C14.3335 7.43 13.5702 6.66667 12.6668 6.66667Z" fill="#3D8A87"/>
</svg>
