<svg width="43" height="43" viewBox="0 0 43 43" fill="none" xmlns="http://www.w3.org/2000/svg">
<g filter="url(#filter0_d_1023_3945)">
<rect x="4" width="35" height="35" rx="10" fill="#2C2E3D" fill-opacity="0.07" shape-rendering="crispEdges"/>
</g>
<path d="M20.8557 22.4551V24.3159C20.8557 25.8926 19.389 27.1668 17.5832 27.1668C15.7774 27.1668 14.3015 25.8926 14.3015 24.3159V22.4551C14.3015 24.0317 15.7682 25.1501 17.5832 25.1501C19.389 25.1501 20.8557 24.0226 20.8557 22.4551Z" stroke="#2C2E3D" stroke-linecap="round" stroke-linejoin="round"/>
<path d="M20.8541 19.9339C20.8541 20.3923 20.7257 20.8139 20.5057 21.1806C19.9649 22.0697 18.8557 22.6289 17.5724 22.6289C16.2891 22.6289 15.1799 22.0606 14.6391 21.1806C14.4191 20.8139 14.2908 20.3923 14.2908 19.9339C14.2908 19.1456 14.6574 18.4398 15.2441 17.9264C15.8399 17.4039 16.6557 17.0923 17.5632 17.0923C18.4707 17.0923 19.2866 17.4131 19.8824 17.9264C20.4874 18.4306 20.8541 19.1456 20.8541 19.9339Z" stroke="#2C2E3D" stroke-linecap="round" stroke-linejoin="round"/>
<path d="M20.8557 19.9343V22.4551C20.8557 24.0318 19.389 25.1502 17.5832 25.1502C15.7774 25.1502 14.3015 24.0226 14.3015 22.4551V19.9343C14.3015 18.3576 15.7682 17.0835 17.5832 17.0835C18.4907 17.0835 19.3066 17.4043 19.9024 17.9176C20.4891 18.431 20.8557 19.146 20.8557 19.9343Z" stroke="#2C2E3D" stroke-linecap="round" stroke-linejoin="round"/>
<path d="M31.1668 17.0556V18.944C31.1668 19.4481 30.7634 19.8606 30.2501 19.8789H28.4534C27.4634 19.8789 26.556 19.1548 26.4735 18.1648C26.4185 17.5873 26.6384 17.0464 27.0234 16.6706C27.3626 16.3222 27.8301 16.1206 28.3434 16.1206H30.2501C30.7634 16.1389 31.1668 16.5514 31.1668 17.0556Z" stroke="#2C2E3D" stroke-linecap="round" stroke-linejoin="round"/>
<path d="M12.8333 16.6252V14.7918C12.8333 12.2985 14.3366 10.5568 16.6741 10.2635C16.9124 10.2268 17.1599 10.2085 17.4166 10.2085H25.6666C25.9049 10.2085 26.1341 10.2177 26.3541 10.2543C28.7191 10.5293 30.2499 12.2802 30.2499 14.7918V16.121H28.3432C27.8299 16.121 27.3624 16.3227 27.0232 16.671C26.6382 17.0468 26.4183 17.5877 26.4733 18.1652C26.5558 19.1552 27.4632 19.8793 28.4532 19.8793H30.2499V21.2085C30.2499 23.9585 28.4166 25.7918 25.6666 25.7918H23.3749" stroke="#2C2E3D" stroke-linecap="round" stroke-linejoin="round"/>
<defs>
<filter id="filter0_d_1023_3945" x="0" y="0" width="43" height="43" filterUnits="userSpaceOnUse" color-interpolation-filters="sRGB">
<feFlood flood-opacity="0" result="BackgroundImageFix"/>
<feColorMatrix in="SourceAlpha" type="matrix" values="0 0 0 0 0 0 0 0 0 0 0 0 0 0 0 0 0 0 127 0" result="hardAlpha"/>
<feOffset dy="4"/>
<feGaussianBlur stdDeviation="2"/>
<feComposite in2="hardAlpha" operator="out"/>
<feColorMatrix type="matrix" values="0 0 0 0 0 0 0 0 0 0 0 0 0 0 0 0 0 0 0.05 0"/>
<feBlend mode="normal" in2="BackgroundImageFix" result="effect1_dropShadow_1023_3945"/>
<feBlend mode="normal" in="SourceGraphic" in2="effect1_dropShadow_1023_3945" result="shape"/>
</filter>
</defs>
</svg>
