<svg width="31" height="25" viewBox="0 0 31 25" fill="none" xmlns="http://www.w3.org/2000/svg">
<path d="M3.74121 5.28467H6.41363V9.02604H3.74121V5.28467Z" fill="#E1945F"/>
<path d="M3.20687 2.6123C2.02614 2.6123 1.06896 3.56949 1.06896 4.75021V8.49159C1.06896 9.08192 0.590332 9.56054 0 9.56054C0 10.4461 1.60346 12.233 3.74137 11.164L4.27588 10.0951V2.6123H3.20687Z" fill="#643C3E"/>
<path d="M6.68088 7.95693C5.05732 7.95693 3.74121 6.64082 3.74121 5.01726V3.41379C3.74121 1.79023 5.05732 0.474121 6.68088 0.474121C8.30439 0.474121 9.62055 1.79023 9.62055 3.41379V5.01726C9.62055 6.64082 8.30445 7.95693 6.68088 7.95693Z" fill="#F5AF73"/>
<path d="M21.6132 13.5688C20.2684 12.269 18.6037 12.9846 17.1589 14.1742L11.4163 18.8802L13.6559 23.139C13.7285 23.0817 13.8013 23.0241 13.8743 22.9667C16.8323 20.6446 19.7768 16.4826 19.7768 16.4826L26.1897 22.3877L28.8621 21.8532C28.8621 21.8533 23.5155 15.4074 21.6132 13.5688Z" fill="#F5C882"/>
<path d="M12.7642 21.4672L13.6558 23.1389C13.7284 23.0816 13.8011 23.0241 13.8742 22.9667C15.1215 21.9875 16.3663 20.6812 17.389 19.4978C17.6846 19.1559 17.2433 18.6812 16.8754 18.9436C15.4267 19.9771 13.9227 20.8475 12.7642 21.4672Z" fill="#F5AF73"/>
<path d="M10.6888 19.4704C8.49642 18.0302 8.01725 15.7067 8.01725 15.7067C7.86068 15.0489 9.13077 14.6378 8.86351 13.1679C8.75429 12.5674 6.94824 11.6981 5.87928 9.56017L2.74755 9.54346C1.58953 15.6232 3.96352 18.7126 6.2356 21.252C6.535 21.5865 6.83168 21.978 7.1461 22.3701L10.6888 19.4704Z" fill="#FB8500"/>
<path d="M12.5721 17.9287L7.146 22.3702C7.81577 23.2055 8.57393 24.0445 9.66511 24.3476C11.5781 24.879 12.6827 23.9021 13.8741 22.9668C14.5055 22.4712 15.1344 21.8902 15.7361 21.2852L12.5721 17.9287Z" fill="#AFB9D2"/>
<path d="M7.14616 22.3701L8.65136 21.138C4.28926 17.5924 3.95716 12.0253 4.47368 10.0321L2.74755 9.54346C1.58953 15.6232 3.96352 18.7126 6.2356 21.252C6.535 21.5865 6.83174 21.978 7.14616 22.3701Z" fill="#FB8500"/>
<path d="M15.7361 21.2854L14.8081 20.3008C13.683 20.9853 12.643 21.5417 11.8949 21.9207C11.122 22.3121 10.1996 22.2425 9.48165 21.7578C9.18861 21.56 8.91433 21.352 8.65125 21.1383L7.146 22.3704C7.81577 23.2056 8.57393 24.0446 9.66511 24.3477C11.5781 24.8792 12.6827 23.9023 13.8741 22.967C14.5055 22.4713 15.1344 21.8903 15.7361 21.2854Z" fill="#959CB5"/>
<path d="M27.4713 22.1316L21.6043 16.0446C21.2555 15.6827 20.6822 15.6631 20.3095 16.0005L19.7766 16.4829L26.1896 22.388L27.4713 22.1316Z" fill="#F5AF73"/>
<path d="M28.8621 21.8535H26.7242C26.5824 21.8535 26.4465 21.9098 26.3463 22.0101C26.246 22.1103 26.1897 22.2463 26.1897 22.388V24.5259H31V23.9914C31 22.8107 30.0428 21.8535 28.8621 21.8535Z" fill="#D5DCED"/>
<path d="M6.68088 0.474121C5.05732 0.474121 3.74121 1.79023 3.74121 3.41379V5.01726C3.74121 5.45852 3.84123 5.87557 4.01543 6.2512C6.43464 5.32938 6.77073 3.44219 9.62055 3.6297V3.41385C9.62055 1.79023 8.30445 0.474121 6.68088 0.474121Z" fill="#785353"/>
<path d="M4.1176 11.1811C3.69716 11.1811 3.09823 10.9801 2.81426 10.3454C2.54277 9.73842 2.71206 8.79207 3.64739 8.4914L10.6894 6.25897L4.23821 3.03388C3.7103 2.76978 3.49626 2.12774 3.76013 1.59953C4.02448 1.07132 4.6673 0.857344 5.19448 1.12145L11.6456 4.34715C12.4048 4.72714 12.8571 5.48973 12.8261 6.33787C12.795 7.18558 12.2882 7.91311 11.5034 8.23619L4.58895 11.0835C4.45557 11.1382 4.25304 11.1811 4.1176 11.1811Z" fill="#F5C882"/>
</svg>
