<svg width="80" height="80" viewBox="0 0 80 80" fill="none" xmlns="http://www.w3.org/2000/svg">
<g filter="url(#filter0_d_1093_3940)">
<circle cx="40" cy="36" r="30" fill="#FAFAFA"/>
</g>
<g clip-path="url(#clip0_1093_3940)">
<path d="M52.5786 40.0396L49.8647 38.5107L48.238 45.4829L55.1582 52.4551L56.7657 53.3607C57.197 53.6037 57.6961 53.1744 57.5204 52.7116L52.8137 40.3129C52.7697 40.1971 52.6865 40.1004 52.5786 40.0396Z" fill="#FABE2C"/>
<path d="M46.6228 36.6846L43.7114 42.9111L49.2696 49.1377L55.1581 52.4552L49.8647 38.5109L46.6228 36.6846Z" fill="#FFD45E"/>
<path d="M46.6229 36.6846L40.5001 40.1338L37.324 47.0669L40.5001 54.0001C40.5911 54.0001 40.6806 53.9766 40.7599 53.9319L49.2696 49.1377L46.6229 36.6846Z" fill="#FFE88C"/>
<path d="M34.3772 36.6846L28.8206 42.9111L31.7304 49.1377L40.2402 53.9319C40.3195 53.9766 40.4089 54.0001 40.5 54.0001V40.1338L34.3772 36.6846Z" fill="#FFD45E"/>
<path d="M34.3773 36.6846L31.7305 49.1377L24.2345 53.3608C23.8031 53.6038 23.3041 53.1746 23.4798 52.7118L28.1864 40.3131C28.2304 40.1973 28.3136 40.1005 28.4215 40.0397L34.3773 36.6846Z" fill="#FFE88C"/>
<path d="M40.5 19V45.4675C40.8772 45.4675 41.2074 45.2696 41.3949 44.9727C41.3962 44.9727 48.5654 33.6037 48.5654 33.6037C49.4915 32.1341 50.0283 30.394 50.0283 28.5283C50.0283 23.266 45.7623 19 40.5 19Z" fill="#2C2E3D"/>
<path d="M41.1962 44.9727C41.1972 44.9727 46.7733 33.6037 46.7733 33.6037C47.4936 32.1341 47.9111 30.394 47.9111 28.5283C47.9111 23.266 44.5931 19 40.5002 19C35.2378 19 30.9719 23.266 30.9719 28.5283C30.9719 30.394 31.5086 32.1342 32.4354 33.6037C32.4347 33.6037 39.604 44.9727 39.604 44.9727C39.7928 45.2696 40.123 45.4675 40.5001 45.4675C40.7935 45.4675 41.0504 45.2696 41.1962 44.9727Z" fill="#2C2E3D"/>
<path d="M40.5 33.8214C43.4235 33.8214 45.7935 31.4514 45.7935 28.5279C45.7935 25.6044 43.4235 23.2344 40.5 23.2344C37.5765 23.2344 35.2065 25.6044 35.2065 28.5279C35.2065 31.4514 37.5765 33.8214 40.5 33.8214Z" fill="white"/>
<path d="M40.5 25.3525V31.7047C42.2541 31.7047 43.6761 30.2828 43.6761 28.5286C43.6761 26.7745 42.2541 25.3525 40.5 25.3525Z" fill="#2C2E3D"/>
<path d="M41.5588 28.5286C41.5588 26.7745 41.0848 25.3525 40.5001 25.3525C38.7459 25.3525 37.324 26.7745 37.324 28.5286C37.324 30.2828 38.7459 31.7047 40.5001 31.7047C41.0848 31.7047 41.5588 30.2828 41.5588 28.5286Z" fill="#2C2E3D"/>
</g>
<defs>
<filter id="filter0_d_1093_3940" x="0" y="0" width="80" height="80" filterUnits="userSpaceOnUse" color-interpolation-filters="sRGB">
<feFlood flood-opacity="0" result="BackgroundImageFix"/>
<feColorMatrix in="SourceAlpha" type="matrix" values="0 0 0 0 0 0 0 0 0 0 0 0 0 0 0 0 0 0 127 0" result="hardAlpha"/>
<feOffset dy="4"/>
<feGaussianBlur stdDeviation="5"/>
<feComposite in2="hardAlpha" operator="out"/>
<feColorMatrix type="matrix" values="0 0 0 0 0 0 0 0 0 0 0 0 0 0 0 0 0 0 0.05 0"/>
<feBlend mode="normal" in2="BackgroundImageFix" result="effect1_dropShadow_1093_3940"/>
<feBlend mode="normal" in="SourceGraphic" in2="effect1_dropShadow_1093_3940" result="shape"/>
</filter>
<clipPath id="clip0_1093_3940">
<rect width="35" height="35" fill="white" transform="translate(23 19)"/>
</clipPath>
</defs>
</svg>
