<svg width="23" height="23" viewBox="0 0 23 23" fill="none" xmlns="http://www.w3.org/2000/svg">
<path fill-rule="evenodd" clip-rule="evenodd" d="M17.6297 8.67178C17.6297 9.85539 17.9425 10.553 18.6309 11.357C19.1526 11.9492 19.3193 12.7095 19.3193 13.5343C19.3193 14.3582 19.0486 15.1403 18.5063 15.7753C17.7964 16.5365 16.7951 17.0225 15.7733 17.107C14.2925 17.2332 12.8107 17.3395 11.3093 17.3395C9.80695 17.3395 8.32615 17.2759 6.84534 17.107C5.82255 17.0225 4.82129 16.5365 4.11227 15.7753C3.56996 15.1403 3.29834 14.3582 3.29834 13.5343C3.29834 12.7095 3.466 11.9492 3.98676 11.357C4.69672 10.553 4.98895 9.85539 4.98895 8.67178V8.27029C4.98895 6.68519 5.38421 5.64871 6.19813 4.63405C7.40825 3.15431 9.34801 2.26685 11.2672 2.26685H11.3514C13.3118 2.26685 15.3143 3.19702 16.5038 4.74036C17.2756 5.73413 17.6297 6.72695 17.6297 8.27029V8.67178ZM8.55102 19.2876C8.55102 18.813 8.98655 18.5956 9.3893 18.5026C9.86042 18.403 12.7312 18.403 13.2023 18.5026C13.605 18.5956 14.0406 18.813 14.0406 19.2876C14.0172 19.7394 13.7521 20.1399 13.3859 20.3943C12.911 20.7645 12.3537 20.9989 11.7711 21.0834C11.4489 21.1252 11.1324 21.1261 10.8214 21.0834C10.2379 20.9989 9.68059 20.7645 9.20665 20.3934C8.8395 20.1399 8.57443 19.7394 8.55102 19.2876Z" fill="#2C2E3D"/>
</svg>
