<svg width="30" height="30" viewBox="0 0 30 30" fill="none" xmlns="http://www.w3.org/2000/svg">
<circle cx="15" cy="15" r="15" fill="#FFB767" fill-opacity="0.1"/>
<path d="M22.4775 19.7475C22.4775 20.0175 22.4175 20.295 22.29 20.565C22.1625 20.835 21.9975 21.09 21.78 21.33C21.4125 21.735 21.0075 22.0275 20.55 22.215C20.1 22.4025 19.6125 22.5 19.0875 22.5C18.3225 22.5 17.505 22.32 16.6425 21.9525C15.78 21.585 14.9175 21.09 14.0625 20.4675C13.2 19.8375 12.3825 19.14 11.6025 18.3675C10.83 17.5875 10.1325 16.77 9.51 15.915C8.895 15.06 8.4 14.205 8.04 13.3575C7.68 12.5025 7.5 11.685 7.5 10.905C7.5 10.395 7.59 9.9075 7.77 9.4575C7.95 9 8.235 8.58 8.6325 8.205C9.1125 7.7325 9.6375 7.5 10.1925 7.5C10.4025 7.5 10.6125 7.545 10.8 7.635C10.995 7.725 11.1675 7.86 11.3025 8.055L13.0425 10.5075C13.1775 10.695 13.275 10.8675 13.3425 11.0325C13.41 11.19 13.4475 11.3475 13.4475 11.49C13.4475 11.67 13.395 11.85 13.29 12.0225C13.1925 12.195 13.05 12.375 12.87 12.555L12.3 13.1475C12.2175 13.23 12.18 13.3275 12.18 13.4475C12.18 13.5075 12.1875 13.56 12.2025 13.62C12.225 13.68 12.2475 13.725 12.2625 13.77C12.3975 14.0175 12.63 14.34 12.96 14.73C13.2975 15.12 13.6575 15.5175 14.0475 15.915C14.4525 16.3125 14.8425 16.68 15.24 17.0175C15.63 17.3475 15.9525 17.5725 16.2075 17.7075C16.245 17.7225 16.29 17.745 16.3425 17.7675C16.4025 17.79 16.4625 17.7975 16.53 17.7975C16.6575 17.7975 16.755 17.7525 16.8375 17.67L17.4075 17.1075C17.595 16.92 17.775 16.7775 17.9475 16.6875C18.12 16.5825 18.2925 16.53 18.48 16.53C18.6225 16.53 18.7725 16.56 18.9375 16.6275C19.1025 16.695 19.275 16.7925 19.4625 16.92L21.945 18.6825C22.14 18.8175 22.275 18.975 22.3575 19.1625C22.4325 19.35 22.4775 19.5375 22.4775 19.7475Z" stroke="#FFB767" stroke-miterlimit="10"/>
</svg>
