<svg width="24" height="24" viewBox="0 0 24 24" fill="none" xmlns="http://www.w3.org/2000/svg">
<g clip-path="url(#clip0_352_3003)">
<path d="M1.40625 1.40625H5.625V0H0V5.625H1.40625V1.40625ZM18.375 0V1.40625H22.5938V5.625H24V0H18.375ZM22.5938 22.5938H18.375V24H24V18.375H22.5938V22.5938ZM1.40625 18.375H0V24H5.625V22.5938H1.40625V18.375Z" fill="#E2C488"/>
<path d="M2.85938 2.8125V9.84375H9.89062V5.625H11.2969V4.21875H9.89062V2.8125H2.85938ZM8.48438 8.4375H4.26562V4.21875H8.48438V8.4375ZM21.1406 21.0938V14.0625H18.3281V12.6562H16.9219V14.0625H12.7031V15.4688H14.1094V16.875H12.7031V18.2812H14.1094V21.0938H21.1406ZM15.5156 15.4688H19.7344V19.6875H15.5156V15.4688ZM7.07812 12.6562H9.89062V11.25H2.85938V12.6562H5.67188V14.0625H4.26562V15.4688H5.67188V18.2812H4.26562V19.6875H5.67188V21.0938H12.7031V19.6875H11.2969V18.2812H9.89062V19.6875H7.07812V18.2812H8.48438V16.875H7.07812V12.6562Z" fill="#E2C488"/>
<path d="M5.67188 5.625H7.07812V7.03125H5.67188V5.625ZM16.9219 5.625H18.3281V7.03125H16.9219V5.625Z" fill="#E2C488"/>
<path d="M18.3281 9.84375H21.1406V2.8125H14.1094V9.84375H16.9219V11.25H18.3281V9.84375ZM15.5156 8.4375V4.21875H19.7344V8.4375H15.5156ZM21.1406 12.6562V11.25H18.3281V12.6562H21.1406ZM16.9219 16.875H18.3281V18.2812H16.9219V16.875ZM11.2969 15.4688H12.7031V16.875H11.2969V15.4688ZM8.48438 16.875H9.89062V14.0625H8.48438V16.875ZM9.89062 12.6562H11.2969V14.0625H9.89062V12.6562ZM4.26562 15.4688H2.85938V18.2812H4.26562V15.4688ZM2.85938 19.6875H4.26562V21.0938H2.85938V19.6875ZM11.2969 2.8125H12.7031V4.21875H11.2969V2.8125ZM11.2969 8.4375H12.7031V5.625H11.2969V8.4375ZM12.7031 11.25V9.84375H11.2969V12.6562H16.9219V11.25H12.7031Z" fill="#E2C488"/>
</g>
<defs>
<clipPath id="clip0_352_3003">
<rect width="24" height="24" fill="white"/>
</clipPath>
</defs>
</svg>
