<svg width="24" height="24" viewBox="0 0 24 24" fill="none" xmlns="http://www.w3.org/2000/svg">
<g clip-path="url(#clip0_23_438)">
<path d="M24 17.8839C24 19.2 22.9548 20.2452 21.6774 20.2452H2.32258C1.04516 20.2452 0 19.2 0 17.8839V6.11613C0 4.8 1.04516 3.75484 2.32258 3.75484H21.6774C22.9548 3.75484 24 4.8 24 6.11613V17.8839Z" fill="#009966"/>
<path d="M2.32263 3.75484H21.6775C22.9549 3.75484 24 4.8 24 6.11613V17.8839C24 19.2 22.9549 20.2452 21.6775 20.2452" fill="#038E5C"/>
<path d="M24 17.8839C24 19.2 22.9548 20.2452 21.6774 20.2452H2.32258C1.04516 20.2452 0 19.2 0 17.8839M2.32258 3.75484H21.6774C22.9548 3.75484 24 4.8 24 6.11613V10.4129" fill="#007A54"/>
<path d="M2.94195 7.50968C3.09679 7.39355 3.09679 7.70322 2.94195 8.05161C3.01937 7.93548 3.17421 7.66451 3.1355 7.47097C3.09679 7.2 2.94195 7.23871 2.82582 7.39355C2.7484 7.50968 2.78711 7.5871 2.94195 7.50968Z" fill="white"/>
<path d="M2.98058 9.71613C3.17413 9.36774 3.09671 9.09677 3.25155 8.59355C3.36768 8.28387 3.36768 8.51613 3.36768 8.70968C3.29026 9.2129 3.32897 10.0258 4.02574 9.9871C4.06445 10.4516 4.18058 11.2645 4.18058 11.5742C4.18058 11.8452 4.21929 11.7677 4.29671 11.6129C4.37413 11.4581 4.33542 11.2645 4.33542 11.0323C4.33542 10.8 4.29671 10.3742 4.258 9.79355C4.33542 9.71613 4.45155 9.6 4.49026 9.52258C4.56768 9.32903 4.60639 9.36774 4.6451 9.52258C4.72252 9.83226 5.03219 10.0258 5.41929 9.71613C5.80639 9.44516 5.65155 8.90323 5.458 8.32258C5.61284 8.36129 5.65155 8.24516 5.57413 8.09032C5.53542 8.0129 5.458 7.93548 5.41929 7.85806C5.34187 7.78064 5.30316 7.70323 5.22574 7.78065C5.14832 7.85806 5.10961 7.93548 5.0709 7.97419C5.03219 8.0129 5.03219 8.09032 5.0709 8.20645C5.22574 8.55484 5.30316 8.94194 5.34187 9.13548C5.38058 9.32903 5.30316 9.36774 5.14832 9.36774C5.03219 9.36774 4.83865 9.32903 4.76123 9.01935C4.68381 8.70968 4.6451 8.59355 4.68381 8.36129C4.68381 8.16774 4.72252 8.0129 4.56768 7.81936C4.41284 7.62581 4.41284 7.66452 4.37413 7.74194C4.33542 7.85806 4.29671 8.0129 4.33542 8.20645C4.41284 8.47742 4.45155 8.70968 4.49026 8.86452C4.52897 8.98065 4.41284 9.2129 4.21929 9.32903C4.18058 8.94194 4.14187 8.47742 4.10316 8.05161C4.33542 7.97419 4.21929 7.70323 4.02574 7.39355C3.90961 7.16129 3.83219 7.23871 3.75477 7.39355C3.67736 7.54839 3.71607 7.62581 3.79348 7.74194C3.75477 7.85806 3.83219 8.0129 3.8709 8.28387C3.90961 8.47742 3.94832 8.98064 3.94832 9.40645C3.79348 9.40645 3.67736 9.29032 3.59994 9.13548C3.48381 8.82581 3.48381 8.51613 3.56123 8.36129C3.63865 8.16774 3.67736 7.89677 3.56123 7.81936C3.4451 7.74194 3.32897 7.81936 3.25155 7.97419C3.09671 8.20645 2.94187 8.51613 2.94187 8.86452C2.94187 8.98065 2.90316 9.25161 2.82574 9.36774C2.78703 9.48387 2.6709 9.48387 2.59348 9.32903C2.43865 9.09677 2.39994 8.47742 2.39994 8.16774C2.39994 8.0129 2.36123 7.97419 2.32252 8.16774C2.16768 8.7871 2.36123 9.40645 2.47736 9.67742C2.6709 10.0258 2.86445 9.94839 2.98058 9.71613Z" fill="white"/>
<path d="M4.83874 7.70323C4.91616 7.62581 4.91616 7.62581 4.95487 7.70323C4.99358 7.78065 5.10971 7.78065 5.14842 7.70323C5.18713 7.62581 5.22583 7.5871 5.18712 7.47097C5.14842 7.39355 5.14842 7.43226 5.10971 7.50968C5.071 7.66452 4.91616 7.62581 4.91616 7.43226C4.91616 7.23871 4.87745 7.35484 4.80003 7.47097C4.72261 7.66452 4.60648 7.62581 4.60648 7.43226C4.60648 7.31613 4.56777 7.2 4.49035 7.35484C4.45164 7.47097 4.49035 7.5871 4.52906 7.66452C4.64519 7.78065 4.76132 7.78065 4.83874 7.70323ZM3.67745 10.6065C3.79358 10.5677 3.79358 10.5677 3.79358 10.4129C3.79358 10.2581 3.71616 10.3355 3.56132 10.3742C3.32906 10.4516 2.86454 10.6839 2.51616 11.1097C2.36132 11.3032 2.47745 11.2258 2.59358 11.1484C2.78713 10.9936 3.36777 10.6839 3.67745 10.6065ZM2.90325 13.0839C2.78713 13.2774 2.55487 13.0065 2.70971 12.5032C2.74842 12.3871 2.78713 12.3097 2.78713 12.2323V11.9613C2.78713 11.8839 2.70971 12 2.671 12.1548C2.63229 12.3871 2.47745 12.5032 2.51616 13.2387C2.55487 13.6645 3.05809 13.6645 3.0968 13.1226C3.0968 12.8903 3.01938 12.8903 2.90325 13.0839ZM6.34841 11.4581C6.34841 11.2645 6.30971 11.071 6.30971 10.8774C6.34841 10.8774 6.34842 10.8387 6.38712 10.8387C6.50325 11.1871 7.00648 11.1097 7.16132 10.8774C7.23874 10.7613 7.23874 10.7613 7.31616 10.8774C7.43229 11.0323 7.81938 11.1097 7.8968 10.8774C7.97422 10.6452 7.97422 10.4129 7.93551 10.2581C7.8968 10.0645 7.85809 10.1032 7.74196 10.1806C7.62583 10.2581 7.70325 10.2968 7.74196 10.4129C7.78067 10.8774 7.39358 10.8387 7.35487 10.3742C7.31616 10.0645 7.27745 10.1806 7.23874 10.3355C7.04519 10.9161 6.54196 11.0323 6.61938 10.3355C6.61938 10.1419 6.50325 10.2194 6.42583 10.2968L6.271 10.4516C6.23229 9.90968 6.19358 9.29033 6.11616 8.51613C6.271 8.70968 6.42583 8.47742 6.30971 8.28387C6.23229 8.12903 6.11616 7.74194 6.03874 7.54839C5.96132 7.35484 5.92261 7.39355 5.76777 7.5871C5.61293 7.74194 5.65164 7.78065 5.69035 7.9742C5.69035 8.20645 5.69035 8.4 5.76777 8.82581C5.80648 9.13549 5.8839 9.79355 5.96132 10.6065C5.8839 10.6452 5.76777 10.7226 5.69035 10.7613C5.65164 10.6065 5.53551 10.529 5.38067 10.3742C5.14842 10.1419 4.99358 10.1419 4.80003 10.4129C4.60648 10.6839 4.64519 10.7226 4.64519 10.9936C4.64519 11.2258 4.60648 11.3032 4.80003 11.3806C4.99358 11.4581 5.071 11.4194 5.18712 11.3806C5.26454 11.3419 5.38067 11.3032 5.53551 11.2645C5.57422 11.3806 5.53551 11.5355 5.45809 11.6129C4.99358 12.1548 4.2968 12.5806 3.98713 12.1936C3.83229 12 3.75487 11.6903 3.79358 11.3032C3.83229 10.9936 3.75487 11.1484 3.71616 11.2258C3.60003 11.5742 3.56132 12.1161 3.71616 12.3871C3.90971 12.7742 4.25809 12.929 4.80003 12.6581C5.34196 12.4258 5.84519 12 5.84519 11.4194V11.1484C5.92261 11.1097 6.00003 11.071 6.03874 11.0323V11.6903C6.07745 12.3097 5.80648 12.5032 5.57422 12.6968C5.26454 12.929 4.83874 13.1226 4.45164 13.1613C3.60003 13.2774 3.40648 12.7355 3.40648 12C3.40648 11.8839 3.44519 11.8065 3.44519 11.6516C3.44519 11.3419 3.40648 11.3806 3.29035 11.6903C3.21293 12 3.0968 12.6968 3.36777 13.2774C3.67745 13.8581 4.6839 13.7032 5.45809 13.3161C6.30971 12.8903 6.38712 12.1936 6.34841 11.4581ZM5.26454 10.8774C5.071 10.9548 4.99358 10.8387 5.03229 10.7226C5.03229 10.6065 5.071 10.529 5.22583 10.6065C5.30325 10.6452 5.38067 10.7226 5.45809 10.8387C5.34196 10.8774 5.30325 10.8774 5.26454 10.8774Z" fill="white"/>
<path d="M7.23869 12.1161C7.31611 11.9613 7.35482 11.8064 7.31611 11.6129C7.2774 11.4968 7.31611 11.4581 7.19998 11.3806C7.08386 11.3419 7.04515 11.4194 7.00644 11.4968C6.96773 11.6129 7.04515 11.7677 7.19998 11.6903C7.23869 11.7677 7.19998 11.9613 7.16127 12.0774C7.12256 12.2323 7.16127 12.271 7.23869 12.1161ZM7.54837 8.98064C7.39353 9.17419 7.2774 9.44516 7.50966 9.6C7.62579 9.67742 7.85805 9.56129 7.93547 9.40645C8.01289 9.2129 7.97418 9.17419 7.81934 9.36774C7.62579 9.6 7.39353 9.40645 7.62579 9.05806C7.78063 8.8258 7.6645 8.78709 7.54837 8.98064ZM6.89031 9.01935C7.43224 8.78709 7.74192 8.47742 7.89676 8.20645C8.0516 8.24516 8.09031 8.12903 8.01289 8.0129C8.0516 7.89677 8.09031 7.81935 8.12902 7.74193C8.24515 7.23871 7.74192 7.2 7.62579 7.58709C7.54837 7.78064 7.54837 7.97419 7.70321 8.09032C7.47095 8.4 7.16127 8.67096 6.77418 8.90322C6.61934 9.05806 6.65805 9.13548 6.89031 9.01935ZM7.81934 7.66451C7.85805 7.54838 7.93547 7.6258 7.93547 7.70322C7.93547 7.74193 7.89676 7.81935 7.85805 7.85806C7.78063 7.81935 7.78063 7.74193 7.81934 7.66451Z" fill="white"/>
<path d="M7.6258 7.58709C7.54839 7.78064 7.54838 7.97419 7.70322 8.09032C7.66451 8.12903 7.6258 8.20645 7.58709 8.24516L7.78064 8.4C7.81935 8.32258 7.89677 8.28387 7.93548 8.20645C8.09032 8.24516 8.12903 8.12903 8.05161 8.0129C8.09032 7.89677 8.12903 7.81935 8.16774 7.74193C8.24516 7.23871 7.78064 7.2 7.6258 7.58709ZM7.93548 7.70322C7.93548 7.74193 7.89677 7.81935 7.85806 7.85806C7.78064 7.81935 7.78064 7.74193 7.81935 7.66451C7.85806 7.54838 7.93548 7.6258 7.93548 7.70322Z" fill="#CFE7E8"/>
<path d="M8.20639 12.1161C8.12897 12.1548 8.01284 12.271 7.93542 12.3484C7.93542 12.1935 7.97413 11.9613 7.97413 11.8839C7.97413 11.7677 7.93542 11.729 7.858 11.8452C7.74187 12.0774 7.62574 12.3871 7.58703 12.6193C7.0838 12.9677 6.46445 13.3161 6.03864 13.5097C5.84509 13.5871 5.96122 13.6645 6.11606 13.6258C6.69671 13.4322 7.16122 13.2774 7.58703 13.0839C7.62574 13.4322 7.74187 13.6645 8.05155 13.7419C8.63219 13.8968 9.21284 13.3935 9.8709 12.5032C10.0257 12.929 10.4128 13.5097 11.4193 13.6645C11.8451 13.7419 11.8064 13.7032 11.8838 13.471C11.9225 13.2774 11.9999 13.2387 11.6515 13.1613C11.2257 13.0064 11.0709 12.6968 11.4967 12.5032C11.9225 12.3097 12.5032 12.1548 12.8903 12.0774C13.1612 12.0387 13.2386 12.0387 13.3161 11.8064C13.3935 11.5355 13.4322 11.4968 13.1612 11.5355C12.8515 11.5742 11.3806 11.6129 10.9935 11.5742C11.3032 11.4193 11.729 11.2645 12.0386 11.1484C12.1548 11.2258 12.1935 11.1871 12.1548 11.1097C12.2709 11.071 12.387 11.0322 12.5032 10.9548C12.8515 10.7613 13.0064 10.3355 12.6193 10.0645C12.2322 9.79354 11.9225 9.71612 11.729 9.98709C11.5741 10.2193 11.4193 10.4516 11.6515 10.7613C11.3032 10.8774 10.9935 10.9935 10.6838 11.1097C10.4515 11.1871 10.3354 11.2258 10.258 11.5355C10.1806 11.8452 10.1419 11.8452 10.4515 11.8839C10.8774 11.8839 11.2644 11.8839 11.5354 12.1161C11.1096 12.271 10.7999 12.5806 10.9548 13.0064C10.7612 12.9677 10.5677 12.8903 10.4128 12.7355C10.1032 12.4258 10.1032 11.8839 9.98703 11.2645C9.8709 10.6452 9.59993 10.1032 9.4838 9.87096C9.40638 9.6387 9.36768 9.75483 9.29026 9.90967C9.21284 10.0645 9.13542 10.1419 9.21284 10.3742C9.36767 10.7613 9.59993 11.5355 9.71606 12C9.4838 12.5419 8.86445 13.2 8.36122 13.2774C7.97413 13.3548 7.858 13.1226 7.89671 12.929C8.16768 12.7742 8.39993 12.5806 8.63219 12.3484C9.09671 11.8452 9.17413 11.4581 8.86445 10.6452C9.058 10.6839 9.01929 10.529 8.74832 10.1806C8.55477 9.94838 8.51606 9.98709 8.39993 10.2193C8.32251 10.4129 8.24509 10.5677 8.47735 10.6452C8.51606 10.7613 8.59348 10.9161 8.70961 11.1097C8.94187 11.6129 8.55477 11.8064 8.20639 12.1161ZM11.8838 10.4129C11.8838 10.2968 11.9225 10.2968 12.1161 10.4129C12.3096 10.529 12.4644 10.5677 12.1935 10.6064C12.1161 10.6452 11.9999 10.6452 11.9225 10.6839C11.9225 10.5677 11.9225 10.4903 11.8838 10.4129Z" fill="white"/>
<path d="M13.1225 11.5355C12.929 11.5355 12.0774 11.5742 11.4967 11.5742L12.2709 12.2323C12.4645 12.1548 12.6967 12.1161 12.8516 12.0774C13.1225 12.0387 13.1999 12.0387 13.2774 11.8064C13.3548 11.5355 13.3935 11.4968 13.1225 11.5355ZM9.32898 9.71613L9.4064 9.79354C9.4064 9.71613 9.36769 9.71613 9.32898 9.71613ZM11.3032 11.3806C11.5354 11.2645 11.8064 11.1871 11.9999 11.1097C12.1161 11.1871 12.1548 11.1484 12.1161 11.071C12.2322 11.0323 12.3483 10.9935 12.4645 10.9161C12.8129 10.7226 12.9677 10.2968 12.5806 10.0258C12.1935 9.75483 11.8838 9.67742 11.6903 9.94838C11.5354 10.1806 11.3806 10.4129 11.6129 10.7226C11.3419 10.8 11.1096 10.8774 10.8774 10.9935L11.3032 11.3806ZM12.1548 10.4129C12.3483 10.529 12.5032 10.5677 12.2322 10.6064C12.1548 10.6452 12.0387 10.6452 11.9612 10.6839C11.9225 10.5677 11.9225 10.4903 11.9225 10.4516C11.8838 10.2968 11.9612 10.2968 12.1548 10.4129Z" fill="#CFE7E8"/>
<path d="M12.7741 13.5484C12.8903 13.5097 13.0838 13.3935 13.2386 13.2774C13.3935 13.1226 13.2774 13.1613 13.1612 13.2C13.0451 13.2387 12.929 13.3161 12.7741 13.3548C12.6193 13.4323 12.5806 13.3548 12.658 13.0839C12.7354 12.8516 12.658 12.8516 12.5419 12.8903C12.4257 12.929 12.387 13.0064 12.2709 13.0839C12.1935 13.1226 12.1935 13.2 12.387 13.1226C12.5419 13.0452 12.5032 13.1226 12.4645 13.3161C12.387 13.5097 12.5032 13.6258 12.7741 13.5484Z" fill="white"/>
<path d="M9.17418 9.32903C9.29031 9.05806 9.36772 8.7871 9.44514 8.59355C9.52256 8.4 9.59998 8.43871 9.56127 8.63226C9.52256 8.98064 9.52256 9.52258 9.87095 9.75484C10.2193 9.94839 10.7613 9.6 10.9548 9.2129C11.5355 9.94839 12.0387 9.6 12.0774 8.90323C12.0774 8.67097 12 8.20645 11.9226 8.05161C11.8451 7.89677 11.9226 7.89677 12 7.97419C12.0774 8.05161 12.2322 8.12903 12.1548 7.85806C12.0774 7.62581 11.9613 7.47097 11.8451 7.35484C11.729 7.23871 11.6903 7.31613 11.6516 7.39355C11.6129 7.47097 11.6129 7.50968 11.5355 7.5871C11.458 7.66452 11.4968 7.70323 11.5355 7.81935C11.7677 8.36129 11.9613 9.17419 11.6129 9.25161C11.3032 9.32903 11.1097 8.63226 11.1097 8.32258C11.1097 7.93548 11.0322 7.5871 10.9548 7.35484C10.8774 7.12258 10.8387 7.12258 10.7613 7.23871C10.7226 7.31613 10.7226 7.39355 10.6451 7.47097C10.6064 7.54839 10.6451 7.5871 10.6839 7.74194C10.8774 8.63226 10.8387 9.01935 10.4516 9.25161C10.0645 9.48387 9.83224 9.25161 9.83224 8.98065C9.83224 8.70968 9.83224 8.36129 9.87095 8.12903C9.90966 7.89677 9.94837 7.81935 9.87095 7.70323C9.79353 7.5871 9.71611 7.62581 9.59998 7.78065C9.36772 8.12903 9.09676 8.70968 9.01934 8.98065C8.94192 9.25161 8.74837 9.17419 8.63224 8.94194C8.4774 8.67097 8.51611 8.16774 8.55482 7.93548C8.59353 7.74194 8.59353 7.66452 8.4774 7.85806C8.28385 8.4 8.28385 8.94193 8.70966 9.40645C8.90321 9.75484 9.05805 9.6 9.17418 9.32903Z" fill="#CFE7E8"/>
<path d="M10.2581 8.28387C10.2581 8.4 10.2581 8.55484 10.3355 8.32258C10.3742 8.09032 10.3742 7.78065 10.2968 7.5871C10.2194 7.39355 10.1806 7.35484 10.1032 7.43226C10.0258 7.50968 10.0258 7.54839 10.1032 7.62581C10.1806 7.74194 10.2968 8.0129 10.2581 8.28387ZM11.071 10.1032C11.071 10.4129 10.9936 10.4129 10.8774 10.1032C10.8387 9.9871 10.8 9.9871 10.7613 10.1419C10.7613 10.4129 10.6452 10.4516 10.5677 10.1806C10.529 10.0645 10.529 9.94839 10.4903 10.1419C10.4516 10.2968 10.4903 10.4129 10.5677 10.529C10.6452 10.6065 10.7613 10.6065 10.8 10.4903C10.8387 10.3742 10.8774 10.3742 10.9548 10.4516C11.0323 10.529 11.3419 10.4516 11.1871 10.0258C11.1097 9.87097 11.071 9.90968 11.071 10.1032ZM14.2065 7.66452C14.3226 7.74194 14.4387 7.93549 14.4 8.16774C14.3613 8.36129 14.4 8.47742 14.5161 8.20645C14.6323 7.93549 14.5548 7.62581 14.4387 7.43226C14.3226 7.23871 14.2839 7.31613 14.2065 7.39355C14.129 7.50968 14.0903 7.62581 14.2065 7.66452ZM12.2323 7.78065C12.2323 7.89678 12.271 7.97419 12.4258 8.0129C12.7355 8.43871 13.0839 8.90323 13.3936 9.32903C13.4323 9.71613 13.5097 10.1032 13.5484 10.4516C13.6258 11.2258 13.7806 12.271 13.6645 12.7355C13.5871 13.0839 13.6645 13.2 13.8194 12.6968C13.9742 12.1935 13.9742 11.6903 13.8581 10.9548C13.8194 10.6452 13.8194 10.2968 13.7806 9.90968C14.2839 10.7226 14.7871 11.4968 14.9806 12.0387C15.0968 12.3484 15.2129 12.3871 15.0968 12C14.9806 11.4581 14.4774 10.529 13.7032 9.36774C13.6645 9.05807 13.6645 8.74839 13.6645 8.51613C13.7806 8.63226 13.8581 8.55484 13.8194 8.4C13.7419 8.09032 13.6258 7.85807 13.5097 7.54839C13.471 7.39355 13.3161 7.39355 13.2387 7.5871C13.1613 7.81936 13.1613 7.85807 13.2387 8.0129C13.2387 8.20645 13.2774 8.47742 13.3161 8.74839C13.2 8.55484 13.0065 8.28387 12.8516 8.09032C13.0452 8.16774 13.2 8.12903 13.0065 7.89678C12.8129 7.70323 12.5419 7.47097 12.3871 7.31613C12.2323 7.16129 12.1548 7.27742 12.1548 7.39355C12.2323 7.5871 12.271 7.66452 12.2323 7.78065ZM14.4387 8.86452C14.4 9.05807 14.3226 8.98065 14.2839 8.82581C14.2452 8.74839 14.2065 8.7871 14.2065 8.94194C14.2452 9.09678 14.2839 9.2129 14.4 9.09678C14.4774 9.01936 14.4774 9.01936 14.5936 9.09678C14.671 9.17419 14.7484 9.09678 14.7871 9.05807C14.7871 9.01936 14.8258 8.94194 14.7871 8.74839C14.7484 8.55484 14.7097 8.67097 14.671 8.82581C14.6323 8.98065 14.5548 9.01936 14.5161 8.82581C14.5161 8.67097 14.4387 8.70968 14.4387 8.86452Z" fill="#CFE7E8"/>
<path d="M15.329 11.3806C15.3677 12.0774 15.4452 12.3871 15.0193 12.8903C14.5548 13.3935 14.2452 13.5484 14.0516 13.5871C13.7806 13.6645 13.7032 13.7806 14.0903 13.7419C14.671 13.7032 14.7484 13.7032 15.2516 13.1226C15.5226 12.8129 15.6387 12.4258 15.6387 11.4968C15.6 9.87096 15.4064 9.17419 15.4064 8.28386C15.4839 8.36128 15.6 8.36128 15.5613 8.20645C15.4839 8.0129 15.4452 7.78064 15.4064 7.58709C15.329 7.39354 15.2903 7.31612 15.2129 7.43225C15.1355 7.54838 15.0581 7.58709 15.0193 7.66451C14.9806 7.74193 14.9419 7.85806 15.0193 7.97419C15.2516 9.87096 15.2903 10.6839 15.329 11.3806ZM16.3355 11.5742C16.3742 11.9613 16.4516 12.2323 16.3355 12.6968C16.2968 12.8129 16.3742 12.8903 16.4516 12.6968C16.8 12.0387 16.5677 11.4581 16.529 11.071C16.4903 10.4903 16.2581 8.98064 16.2193 8.36128L16.2581 8.39999C16.4129 8.47741 16.6064 8.55483 16.4903 8.32257C16.3742 8.12903 16.2581 7.78064 16.1806 7.54838C16.1032 7.31612 16.0645 7.31612 15.9484 7.50967C15.7161 7.81935 15.871 8.12903 15.9484 8.51612C16.1032 9.83225 16.2968 11.1871 16.3355 11.5742ZM17.1484 9.40645C17.2645 9.52257 17.3419 9.75483 17.4193 9.87096C17.4968 10.0645 17.5742 9.90967 17.5742 9.79354C17.5742 9.67741 17.5355 9.32903 17.5742 9.2129C17.6516 9.01935 17.7677 9.29032 17.8064 9.17419C17.8452 9.09677 17.7677 9.05806 17.729 8.98064C17.6903 8.86451 17.6516 8.90322 17.5742 8.94193C17.4968 9.01935 17.4581 9.09677 17.4581 9.13548V9.56128C17.4581 9.71612 17.4193 9.71612 17.3806 9.6387C17.3419 9.52257 17.2258 9.25161 17.1484 9.17419C17.071 9.09677 16.9548 9.13548 16.9548 9.25161V9.44516C16.9548 9.52257 17.1097 9.52257 17.1484 9.40645ZM17.071 10.9161C17.071 11.0323 17.2258 10.8774 17.3419 10.8C17.4581 10.7226 17.8064 10.4903 17.9613 10.4129C18.1161 10.3355 18.0774 10.2968 18.0387 10.1419C18.0387 9.98709 17.9226 10.1032 17.8064 10.2193C17.6903 10.3355 17.3419 10.5677 17.2258 10.6839C17.1097 10.8 17.071 10.8387 17.071 10.9161Z" fill="#CFE7E8"/>
<path d="M16.2581 13.0065C16.1032 12.6968 16.1032 12.3871 16.1032 12.1161C16.1032 11.8839 16.0645 11.6903 15.9871 12.0774C15.7548 13.0065 15.9097 13.2 16.1419 13.3936C16.4516 13.6645 16.5677 13.7032 16.7226 13.4323C17.0322 12.9677 17.1484 12.5806 17.3032 12.3484C17.4581 12.1548 17.4581 12.3097 17.5355 12.3871C17.729 12.6194 17.8839 12.6968 18.1548 12.7355C18.4258 12.7742 18.8903 12.5419 18.8516 11.6903C18.8129 11.1484 18.7742 10.4516 18.7355 9.67742C19.0064 10.0258 19.2 10.3355 19.3935 10.6065C19.471 11.1097 19.5097 11.5742 19.5097 11.9226C19.471 12.3484 19.5871 12.3484 19.6645 11.9226C19.7032 11.7677 19.7032 11.3806 19.6645 10.9548C20.0129 11.4194 20.2064 11.6903 20.3226 11.9226C20.4774 12.1936 20.5548 12.3871 20.5161 11.8839C20.5161 11.6903 20.4387 11.5355 20.2064 11.1871C19.9742 10.8774 19.7806 10.5677 19.5871 10.2581C19.5097 9.52259 19.4322 8.70968 19.4322 8.28388C19.5484 8.36129 19.6258 8.28388 19.5484 8.12904C19.5097 7.9742 19.3935 7.50968 19.3161 7.35484C19.2387 7.2 19.1613 7.2 19.0839 7.39355C19.0064 7.54839 18.929 7.62581 18.9677 7.74194C19.0064 8.47742 19.0839 9.1742 19.2 9.79355C19.0064 9.52258 18.8129 9.25162 18.6581 9.01936C18.6581 8.74839 18.6193 8.47742 18.6193 8.20646C18.7355 8.28388 18.7742 8.28388 18.7355 8.09033C18.6968 7.93549 18.5419 7.54839 18.4645 7.39355C18.3871 7.23871 18.3484 7.23871 18.271 7.35484C18.1548 7.54839 18.1161 7.70323 18.2322 7.89678C18.2322 8.09033 18.271 8.24517 18.271 8.43871C18.1548 8.28388 18.0774 8.12904 17.9613 8.01291C18.0774 8.05162 18.1548 7.9742 18.0387 7.85807C17.9226 7.74194 17.6903 7.54839 17.5742 7.43226C17.4581 7.27742 17.3806 7.31613 17.3806 7.43226V7.78065C17.3806 7.89678 17.3806 7.9742 17.4968 8.16775C17.7677 8.51613 18.0774 8.86452 18.3097 9.21291C18.4258 10.4516 18.4645 11.2645 18.4645 11.7677C18.4645 12.0774 18.3484 12.2323 18.1935 12.271C18.0387 12.3097 17.8839 12.2323 17.729 12C17.4581 11.6129 17.3419 11.6903 17.1484 12.0387C16.9548 12.3871 16.8 12.6581 16.6839 12.8903C16.6064 13.1226 16.4129 13.3161 16.2581 13.0065ZM19.9742 8.70968C19.9742 8.94194 20.0516 8.90323 20.0903 8.70968C20.129 8.51613 20.129 8.12904 20.0129 7.89678C19.8968 7.62581 19.8581 7.74194 19.8193 7.81936C19.7419 7.93549 19.7419 7.9742 19.8581 8.09033C19.8968 8.20646 19.9742 8.47742 19.9742 8.70968Z" fill="#CFE7E8"/>
<path d="M21.0193 11.1097C20.9419 9.48387 20.7484 8.78709 20.7871 8.16774C20.9419 8.28387 20.9806 8.24516 20.9032 8.05161C20.8258 7.85806 20.7097 7.6258 20.6322 7.39354C20.5548 7.19999 20.5161 7.2387 20.4 7.39354C20.2839 7.54838 20.2839 7.66451 20.3226 7.74193C20.5548 9.71612 20.671 10.7613 20.7097 11.3806C20.7484 12.2323 20.5548 12.7355 19.7032 13.3161C19.4322 13.5097 19.1226 13.7032 19.7806 13.5484C20.4 13.3548 21.0968 12.929 21.0193 11.1097ZM18.8516 12.8129C18.7355 12.9677 19.0064 13.0452 19.0451 12.929C19.1226 13.0452 19.0451 13.2387 18.929 13.3548C18.7355 13.5097 18.8516 13.5484 18.9677 13.4323C19.0839 13.3548 19.3935 13.0064 19.2 12.7742C19.0839 12.6968 18.929 12.6968 18.8516 12.8129Z" fill="#CFE7E8"/>
<path d="M18 15.6774C17.4967 15.6774 17.0322 15.6774 16.529 15.7161V15.5613C16.6838 15.3677 16.6451 15.3677 16.529 15.1742C16.4903 15.0968 16.4516 15.0194 16.3354 15.1742C16.2193 15.329 16.2193 15.3677 16.3742 15.5613V15.7161C12.5419 15.7548 8.32255 15.7161 4.68384 15.6774C5.07093 16.3355 6.38706 16.2968 7.58706 16.2968C8.67093 16.2968 11.9225 16.2968 16.3354 16.1806V16.3742C16.1806 16.5677 16.2193 16.5677 16.3354 16.7613C16.4516 16.9161 16.4903 16.8387 16.529 16.7613C16.5677 16.7226 16.5677 16.6839 16.5677 16.6839H17.1484C17.1484 16.7613 17.2645 16.8 17.3032 16.8C17.3419 16.8 17.458 16.7613 17.458 16.6839H18.1161C18.1935 16.8 18.2709 16.8387 18.3871 16.8387C18.6193 16.8387 18.7354 16.5677 18.6967 16.2194C18.658 15.7161 18.4645 15.6387 18 15.6774ZM17.458 16.4516C17.458 16.3742 17.3419 16.3355 17.3032 16.3355C17.2645 16.3355 17.1484 16.3742 17.1484 16.4516H16.5677C16.5677 16.4129 16.529 16.3742 16.4516 16.2968V16.1032C16.9548 16.1032 17.4967 16.0645 18.0387 16.0645C18 16.1806 18 16.2968 18 16.4129L17.458 16.4516Z" fill="white"/>
<path d="M18 15.6774C17.4968 15.6774 17.0322 15.6774 16.529 15.7161V15.5613C16.6839 15.3677 16.6451 15.3677 16.529 15.1742C16.4903 15.0968 16.4516 15.0194 16.3355 15.1742C16.2193 15.329 16.2193 15.3677 16.3742 15.5613V15.7161H16.3355L16.8774 16.1806C17.2645 16.1806 17.6903 16.1419 18.0774 16.1419C18.0387 16.2581 18.0387 16.3742 18.0387 16.4903H17.458C17.458 16.4129 17.3419 16.3742 17.3032 16.3742C17.2645 16.3742 17.1871 16.4129 17.1871 16.4516L17.458 16.6839V16.6452H18.1161C18.1935 16.7613 18.2709 16.8 18.3871 16.8C18.6193 16.8 18.7355 16.529 18.6968 16.1806C18.658 15.7161 18.4645 15.6387 18 15.6774Z" fill="#CFE7E8"/>
</g>
<defs>
<clipPath id="clip0_23_438">
<rect width="24" height="24" fill="white"/>
</clipPath>
</defs>
</svg>
