<svg width="92" height="92" viewBox="0 0 92 92" fill="none" xmlns="http://www.w3.org/2000/svg">
<path d="M45.4483 14.5236C47.6083 14.5236 49.3594 12.7725 49.3594 10.6125C49.3594 8.45246 47.6083 6.70142 45.4483 6.70142C43.2883 6.70142 41.5372 8.45246 41.5372 10.6125C41.5372 12.7725 43.2883 14.5236 45.4483 14.5236Z" fill="#FAFAFA"/>
<path d="M85.4212 85.2984H6.57848C3.94157 85.2984 1.80383 83.1607 1.80383 80.5238V44.8992C1.80383 42.2623 3.94157 40.1245 6.57848 40.1245H85.4212C88.0582 40.1245 90.1959 42.2623 90.1959 44.8992V80.5238C90.1959 83.1608 88.0582 85.2984 85.4212 85.2984Z" fill="#E2C488"/>
<path d="M85.4026 38.3207H84.6175L51.0935 9.72118C50.6639 6.99209 48.2965 4.89819 45.4486 4.89819C42.6006 4.89819 40.2332 6.99209 39.8036 9.72118L6.27 38.329C2.78371 38.5002 0 41.39 0 44.9178V80.505C0 84.1426 2.95963 87.1022 6.59721 87.1022H85.4028C89.0404 87.1022 92 84.1426 92 80.505V44.9178C91.9998 41.2802 89.0402 38.3207 85.4026 38.3207ZM45.4486 16.3283C47.4502 16.3283 49.2134 15.2931 50.2346 13.7309L79.0584 38.3207H11.8387L40.6625 13.7309C41.6836 15.2931 43.4471 16.3283 45.4486 16.3283ZM45.4486 8.50595C46.6105 8.50595 47.5556 9.45129 47.5556 10.6131C47.5556 11.7752 46.6103 12.7203 45.4486 12.7203C44.2866 12.7203 43.3414 11.775 43.3414 10.6131C43.3414 9.45129 44.2868 8.50595 45.4486 8.50595ZM88.3921 80.505C88.3921 82.1534 87.0511 83.4942 85.4028 83.4942H6.59721C4.94876 83.4942 3.60794 82.1532 3.60794 80.505V44.9178C3.60794 43.2695 4.94894 41.9285 6.59721 41.9285H85.4028C87.0512 41.9285 88.3921 43.2695 88.3921 44.9178V80.505Z" fill="#2C2E3D"/>
<path d="M8.73661 48.9771C9.76145 48.9771 10.5922 48.1463 10.5922 47.1215C10.5922 46.0967 9.76145 45.2659 8.73661 45.2659C7.71177 45.2659 6.88098 46.0967 6.88098 47.1215C6.88098 48.1463 7.71177 48.9771 8.73661 48.9771Z" fill="#2C2E3D"/>
<path d="M8.73661 80.8931C9.76145 80.8931 10.5922 80.0623 10.5922 79.0375C10.5922 78.0127 9.76145 77.1819 8.73661 77.1819C7.71177 77.1819 6.88098 78.0127 6.88098 79.0375C6.88098 80.0623 7.71177 80.8931 8.73661 80.8931Z" fill="#2C2E3D"/>
<path d="M83.887 48.9771C84.9118 48.9771 85.7426 48.1463 85.7426 47.1215C85.7426 46.0967 84.9118 45.2659 83.887 45.2659C82.8622 45.2659 82.0314 46.0967 82.0314 47.1215C82.0314 48.1463 82.8622 48.9771 83.887 48.9771Z" fill="#2C2E3D"/>
<path d="M83.887 80.8931C84.9118 80.8931 85.7426 80.0623 85.7426 79.0375C85.7426 78.0127 84.9118 77.1819 83.887 77.1819C82.8622 77.1819 82.0314 78.0127 82.0314 79.0375C82.0314 80.0623 82.8622 80.8931 83.887 80.8931Z" fill="#2C2E3D"/>
</svg>
