<svg width="24" height="24" viewBox="0 0 24 24" fill="none" xmlns="http://www.w3.org/2000/svg">
<g clip-path="url(#clip0_538_3107)">
<path d="M4.60519 14.3007H3.83108C3.49124 14.3007 3.2157 14.0252 3.2157 13.6853C3.2157 13.3455 3.49124 13.07 3.83108 13.07H4.60519C4.94503 13.07 5.22057 13.3455 5.22057 13.6853C5.22057 14.0252 4.94503 14.3007 4.60519 14.3007ZM12.7335 11.1888H11.9594C11.6195 11.1888 11.344 10.9132 11.344 10.5734C11.344 10.2335 11.6195 9.95801 11.9594 9.95801H12.7335C13.0733 9.95801 13.3489 10.2335 13.3489 10.5734C13.3489 10.9132 13.0733 11.1888 12.7335 11.1888ZM16.7976 11.1888H16.0235C15.6837 11.1888 15.4082 10.9132 15.4082 10.5734C15.4082 10.2335 15.6837 9.95801 16.0235 9.95801H16.7976C17.1375 9.95801 17.413 10.2335 17.413 10.5734C17.413 10.9132 17.1375 11.1888 16.7976 11.1888ZM8.66934 11.1888H7.89524C7.55539 11.1888 7.27985 10.9132 7.27985 10.5734C7.27985 10.2335 7.55539 9.95801 7.89524 9.95801H8.66934C9.00919 9.95801 9.28472 10.2335 9.28472 10.5734C9.28472 10.9132 9.00919 11.1888 8.66934 11.1888ZM8.66934 17.4127H7.89524C7.55539 17.4127 7.27985 17.1372 7.27985 16.7973C7.27985 16.4575 7.55539 16.182 7.89524 16.182H8.66934C9.00919 16.182 9.28472 16.4575 9.28472 16.7973C9.28472 17.1372 9.00919 17.4127 8.66934 17.4127ZM4.60519 17.4127H3.83108C3.49124 17.4127 3.2157 17.1372 3.2157 16.7973C3.2157 16.4575 3.49124 16.182 3.83108 16.182H4.60519C4.94503 16.182 5.22057 16.4575 5.22057 16.7973C5.22057 17.1372 4.94503 17.4127 4.60519 17.4127Z" fill="#7E7E7E"/>
<path d="M8.28227 14.6713C8.85517 14.6713 9.3196 14.2069 9.3196 13.634C9.3196 13.0611 8.85517 12.5967 8.28227 12.5967C7.70936 12.5967 7.24493 13.0611 7.24493 13.634C7.24493 14.2069 7.70936 14.6713 8.28227 14.6713Z" fill="#7E7E7E"/>
<path d="M17.6275 11.2549C15.8455 11.2549 14.2323 11.9905 13.0747 13.1735C12.9737 13.106 12.855 13.0701 12.7335 13.0702H11.9594C11.6196 13.0702 11.344 13.3458 11.344 13.6856C11.344 14.0254 11.6196 14.301 11.9594 14.301H12.1942C11.5988 15.2699 11.2549 16.4092 11.2549 17.6274C11.2549 21.1412 14.1137 24 17.6275 24C21.1413 24 24 21.1412 24 17.6273C24 14.1135 21.1413 11.2549 17.6275 11.2549ZM17.6275 22.7691C14.7923 22.7691 12.4858 20.4625 12.4858 17.6273C12.4858 14.7922 14.7924 12.4856 17.6275 12.4856C20.4626 12.4856 22.7693 14.7922 22.7693 17.6273C22.7693 20.4625 20.4626 22.7691 17.6275 22.7691Z" fill="#7E7E7E"/>
<path d="M19.2954 1.66169H17.6723V0.615385C17.6723 0.275538 17.3968 0 17.0569 0C16.7171 0 16.4415 0.275538 16.4415 0.615385V1.66169H13.1772V0.615385C13.1772 0.275538 12.9017 0 12.5618 0C12.222 0 11.9465 0.275538 11.9465 0.615385V1.66169H8.68215V0.615385C8.68215 0.275538 8.40662 0 8.06677 0C7.72692 0 7.45139 0.275538 7.45139 0.615385V1.66169H4.18713V0.615385C4.18713 0.275538 3.91159 0 3.57174 0C3.2319 0 2.95636 0.275538 2.95636 0.615385V1.66169H1.33333C0.598154 1.66169 0 2.25979 0 2.99503V19.2954C0 20.0306 0.598154 20.6287 1.33333 20.6287H9.30974C9.64959 20.6287 9.92513 20.3532 9.92513 20.0133C9.92513 19.6735 9.64959 19.3979 9.30974 19.3979H1.33333C1.27677 19.3979 1.23077 19.3519 1.23077 19.2954V7.34287H19.3979V8.79692C19.3979 9.13677 19.6735 9.41231 20.0133 9.41231C20.3532 9.41231 20.6287 9.13677 20.6287 8.79692V2.99503C20.6287 2.25979 20.0306 1.66169 19.2954 1.66169ZM1.23077 2.99503C1.23077 2.93846 1.27677 2.89246 1.33333 2.89246H2.95636V3.83308C2.95636 4.17292 3.2319 4.44846 3.57174 4.44846C3.91159 4.44846 4.18713 4.17292 4.18713 3.83308V2.89246H7.45139V3.83308C7.45139 4.17292 7.72692 4.44846 8.06677 4.44846C8.40662 4.44846 8.68215 4.17292 8.68215 3.83308V2.89246H11.9465V3.83308C11.9465 4.17292 12.222 4.44846 12.5618 4.44846C12.9017 4.44846 13.1772 4.17292 13.1772 3.83308V2.89246H16.4415V3.83308C16.4415 4.17292 16.7171 4.44846 17.0569 4.44846C17.3968 4.44846 17.6723 4.17292 17.6723 3.83308V2.89246H19.2953C19.3519 2.89246 19.3979 2.93846 19.3979 2.99503V6.11205H1.23077V2.99503Z" fill="#7E7E7E"/>
<path d="M19.786 14.9123L19.2015 13.6658C19.0572 13.358 18.6907 13.2257 18.3831 13.3698C18.1044 13.5006 17.9702 13.8135 18.0546 14.1001C17.9204 14.0838 17.7854 14.0756 17.6503 14.0753C15.6947 14.0753 14.1037 15.7285 14.1037 17.7606C14.1037 18.1005 14.3792 18.376 14.7191 18.376C15.0589 18.376 15.3345 18.1005 15.3345 17.7606C15.3345 16.4083 16.3716 15.308 17.647 15.3062C17.3666 15.8035 17.8875 16.3976 18.4186 16.1768L19.4651 15.7418C19.778 15.6117 19.9313 15.2222 19.786 14.9123ZM19.8632 19.8707C19.6571 19.6005 19.2709 19.5486 19.0007 19.7547C18.6057 20.056 18.1387 20.2153 17.6502 20.2153C17.4112 20.2153 17.1762 20.1756 16.9525 20.1004C17.1425 19.968 17.2498 19.7339 17.2077 19.4907C17.1497 19.1558 16.8314 18.9312 16.4964 18.9893L15.3495 19.1878C14.9989 19.2486 14.7659 19.6158 14.8617 19.9595L15.1927 21.1462C15.35 21.7102 16.1606 21.7404 16.3625 21.1931C16.7686 21.3581 17.2045 21.4461 17.6502 21.4461C18.4108 21.4461 19.1359 21.1996 19.7472 20.7333C20.0174 20.5271 20.0694 20.1409 19.8632 19.8707Z" fill="#7E7E7E"/>
<path d="M20.5359 19.0199C20.9325 19.0199 21.2539 18.6984 21.2539 18.3019C21.2539 17.9054 20.9325 17.584 20.5359 17.584C20.1394 17.584 19.818 17.9054 19.818 18.3019C19.818 18.6984 20.1394 19.0199 20.5359 19.0199Z" fill="#7E7E7E"/>
</g>
<defs>
<clipPath id="clip0_538_3107">
<rect width="24" height="24" fill="white"/>
</clipPath>
</defs>
</svg>
