<svg width="80" height="80" viewBox="0 0 80 80" fill="none" xmlns="http://www.w3.org/2000/svg">
<g filter="url(#filter0_d_1093_3941)">
<circle cx="40" cy="36" r="30" fill="#FAFAFA"/>
</g>
<g clip-path="url(#clip0_1093_3941)">
<path d="M51.7118 47.7155C57.9059 41.5214 57.9059 31.4786 51.7118 25.2845C45.5176 19.0903 35.4749 19.0903 29.2807 25.2845C23.0865 31.4786 23.0865 41.5214 29.2807 47.7155C35.4749 53.9097 45.5176 53.9097 51.7118 47.7155Z" fill="#FABE2C"/>
<path d="M35.0641 21.5957C28.9816 23.8146 24.6389 29.6504 24.6389 36.5006C24.6389 45.2606 31.7402 52.3618 40.5001 52.3618C44.5322 52.3618 48.2122 50.8564 51.0107 48.378C32.3015 46.3104 31.3197 28.5363 35.0641 21.5957Z" fill="#FABE2C"/>
<path d="M53.5222 45.5568H46.3729C47.9673 42.504 48.9519 39.2359 48.9519 36.5009C48.9519 33.7658 47.9673 30.4978 46.3729 27.445H53.5222C53.2772 27.0928 53.0182 26.7508 52.7456 26.4196H45.8096C44.5555 24.2454 43.0017 22.2306 41.292 20.6594C41.0282 20.6463 40.7641 20.6397 40.5 20.6396C40.2343 20.6396 39.9703 20.6465 39.7079 20.6594C37.9982 22.2306 36.4445 24.2455 35.1903 26.4196H28.2543C27.9818 26.7508 27.7227 27.0928 27.4778 27.445H34.627C33.0327 30.4978 32.0482 33.7658 32.0482 36.5009C32.0482 39.2359 33.0327 42.504 34.627 45.5568H27.4778C27.7227 45.9089 27.9818 46.251 28.2543 46.5822H35.1903C36.4445 48.7563 37.9982 50.7712 39.7079 52.3423C39.9703 52.3553 40.2343 52.3621 40.5 52.3621C40.7656 52.3621 41.0296 52.3553 41.292 52.3423C43.0017 50.7711 44.5555 48.7563 45.8096 46.5822H52.7456C53.0181 46.2509 53.2772 45.9089 53.5222 45.5568ZM40.5 21.323C42.0043 22.6838 43.4227 24.4421 44.6213 26.4196H36.3787C37.5773 24.4421 38.9956 22.6837 40.5 21.323ZM40.5 51.6787C38.9956 50.3179 37.5773 48.5597 36.3787 46.5821H44.6214C43.4227 48.5597 42.0043 50.318 40.5 51.6787ZM45.6982 44.6267C45.5422 44.9398 45.3802 45.2499 45.2121 45.5567H35.7878C35.6198 45.2499 35.4577 44.9398 35.3018 44.6267C33.8649 41.7386 33.0735 38.8527 33.0735 36.5009C33.0735 34.149 33.8648 31.2632 35.3018 28.3751C35.4578 28.0619 35.6198 27.7518 35.7878 27.445H45.2121C45.3802 27.7518 45.5422 28.0619 45.6982 28.3751C47.1351 31.2632 47.9265 34.149 47.9265 36.5009C47.9265 38.8527 47.1351 41.7386 45.6982 44.6267Z" fill="#FED843"/>
<path d="M55.9995 32.1748H25.0005C23.8956 32.1748 23 33.0704 23 34.1753V38.8246C23 39.9294 23.8956 40.8251 25.0005 40.8251H55.9995C57.1044 40.8251 58 39.9294 58 38.8246V34.1753C58 33.0704 57.1044 32.1748 55.9995 32.1748Z" fill="#2C2E3D"/>
<path d="M25.0005 32.1748C23.8956 32.1748 23 33.0704 23 34.1753V38.8246C23 39.9294 23.8956 40.8251 25.0005 40.8251H41.8451C39.7208 39.417 38.8241 35.5477 39.709 32.1748H25.0005Z" fill="#2C2E3D"/>
<path d="M41.9567 39.0138C41.8515 39.0138 41.7488 38.9814 41.6626 38.9211C41.5764 38.8607 41.5109 38.7753 41.4749 38.6765L40.5 35.9981L39.5251 38.6765C39.4892 38.7754 39.4236 38.8608 39.3374 38.9212C39.2513 38.9816 39.1486 39.0139 39.0434 39.0139C38.9381 39.0139 38.8354 38.9816 38.7493 38.9212C38.6631 38.8608 38.5975 38.7754 38.5616 38.6765L37.1049 34.6744C37.0819 34.6112 37.0715 34.544 37.0745 34.4767C37.0774 34.4094 37.0935 34.3434 37.122 34.2824C37.1505 34.2214 37.1907 34.1665 37.2403 34.1211C37.2899 34.0756 37.3481 34.0403 37.4113 34.0173C37.5391 33.9708 37.6801 33.977 37.8033 34.0344C37.9266 34.0919 38.0219 34.1959 38.0685 34.3237L39.0434 37.0021L40.0182 34.3237C40.0542 34.2248 40.1197 34.1394 40.2059 34.079C40.2921 34.0187 40.3948 33.9863 40.5 33.9863C40.6052 33.9863 40.7079 34.0187 40.7941 34.079C40.8803 34.1394 40.9458 34.2248 40.9818 34.3237L41.9567 37.0021L42.9316 34.3237C42.9544 34.2601 42.9895 34.2018 43.035 34.1518C43.0805 34.1019 43.1353 34.0615 43.1964 34.0328C43.2576 34.0042 43.3237 33.9879 43.3912 33.9849C43.4586 33.9819 43.526 33.9922 43.5894 34.0153C43.6529 34.0384 43.7111 34.0738 43.7608 34.1194C43.8105 34.1651 43.8508 34.2201 43.8792 34.2814C43.9076 34.3426 43.9236 34.4089 43.9263 34.4763C43.9291 34.5438 43.9184 34.6111 43.8951 34.6744L42.4384 38.6765C42.4024 38.7754 42.3369 38.8608 42.2507 38.9211C42.1646 38.9815 42.0619 39.0138 41.9567 39.0138ZM34.1222 39.0138C34.0169 39.0138 33.9143 38.9814 33.8281 38.9211C33.7419 38.8607 33.6763 38.7753 33.6404 38.6765L32.6655 35.998L31.6906 38.6765C31.6546 38.7753 31.5891 38.8608 31.5029 38.9211C31.4167 38.9815 31.314 39.0139 31.2088 39.0139C31.1036 39.0139 31.0009 38.9815 30.9147 38.9211C30.8285 38.8608 30.763 38.7753 30.727 38.6765L29.2704 34.6744C29.2474 34.6111 29.2371 34.5439 29.24 34.4766C29.2429 34.4094 29.2591 34.3433 29.2875 34.2823C29.316 34.2213 29.3562 34.1665 29.4058 34.121C29.4555 34.0755 29.5136 34.0402 29.5769 34.0172C29.7047 33.9708 29.8456 33.9769 29.9689 34.0344C30.0921 34.0918 30.1875 34.1959 30.234 34.3236L31.2089 37.0021L32.1838 34.3236C32.2197 34.2247 32.2853 34.1393 32.3715 34.0789C32.4577 34.0186 32.5603 33.9862 32.6656 33.9862C32.7708 33.9862 32.8735 34.0186 32.9597 34.0789C33.0458 34.1393 33.1114 34.2247 33.1474 34.3236L34.1222 37.0021L35.0971 34.3236C35.1201 34.2603 35.1554 34.2022 35.2009 34.1526C35.2464 34.1029 35.3012 34.0627 35.3622 34.0343C35.4232 34.0058 35.4893 33.9897 35.5565 33.9867C35.6238 33.9838 35.691 33.9942 35.7543 34.0172C35.8175 34.0402 35.8757 34.0755 35.9253 34.121C35.9749 34.1665 36.0151 34.2213 36.0436 34.2823C36.072 34.3433 36.0882 34.4094 36.0911 34.4766C36.0941 34.5439 36.0837 34.6111 36.0607 34.6744L34.604 38.6765C34.568 38.7753 34.5025 38.8607 34.4163 38.9211C34.3301 38.9814 34.2274 39.0138 34.1222 39.0138ZM49.7912 39.0138C49.6859 39.0138 49.5833 38.9814 49.4971 38.9211C49.4109 38.8607 49.3453 38.7753 49.3094 38.6765L48.3345 35.998L47.3596 38.6765C47.3236 38.7753 47.2581 38.8608 47.1719 38.9211C47.0857 38.9815 46.983 39.0139 46.8778 39.0139C46.7726 39.0139 46.6699 38.9815 46.5837 38.9211C46.4975 38.8608 46.432 38.7753 46.396 38.6765L44.9393 34.6744C44.8935 34.5467 44.9001 34.4062 44.9576 34.2834C45.0152 34.1606 45.119 34.0656 45.2465 34.0192C45.3739 33.9728 45.5145 33.9788 45.6375 34.0359C45.7605 34.0929 45.856 34.1964 45.9029 34.3236L46.8777 37.0021L47.8526 34.3236C47.8886 34.2247 47.9541 34.1393 48.0403 34.0789C48.1265 34.0186 48.2292 33.9862 48.3344 33.9862C48.4396 33.9862 48.5423 34.0186 48.6285 34.0789C48.7147 34.1393 48.7802 34.2247 48.8162 34.3236L49.7911 37.0021L50.766 34.3236C50.8125 34.1958 50.9078 34.0918 51.0311 34.0343C51.1543 33.9769 51.2953 33.9707 51.4231 34.0172C51.5509 34.0637 51.6549 34.1591 51.7124 34.2823C51.7698 34.4056 51.776 34.5466 51.7295 34.6744L50.2728 38.6765C50.2369 38.7753 50.1714 38.8608 50.0852 38.9211C49.999 38.9815 49.8964 39.0138 49.7912 39.0138Z" fill="#FAFAFA"/>
</g>
<defs>
<filter id="filter0_d_1093_3941" x="0" y="0" width="80" height="80" filterUnits="userSpaceOnUse" color-interpolation-filters="sRGB">
<feFlood flood-opacity="0" result="BackgroundImageFix"/>
<feColorMatrix in="SourceAlpha" type="matrix" values="0 0 0 0 0 0 0 0 0 0 0 0 0 0 0 0 0 0 127 0" result="hardAlpha"/>
<feOffset dy="4"/>
<feGaussianBlur stdDeviation="5"/>
<feComposite in2="hardAlpha" operator="out"/>
<feColorMatrix type="matrix" values="0 0 0 0 0 0 0 0 0 0 0 0 0 0 0 0 0 0 0.05 0"/>
<feBlend mode="normal" in2="BackgroundImageFix" result="effect1_dropShadow_1093_3941"/>
<feBlend mode="normal" in="SourceGraphic" in2="effect1_dropShadow_1093_3941" result="shape"/>
</filter>
<clipPath id="clip0_1093_3941">
<rect width="35" height="35" fill="white" transform="translate(23 19)"/>
</clipPath>
</defs>
</svg>
