<svg width="24" height="24" viewBox="0 0 24 24" fill="none" xmlns="http://www.w3.org/2000/svg">
<path d="M10.5 20.25C15.4706 20.25 19.5 16.2206 19.5 11.25C19.5 6.27944 15.4706 2.25 10.5 2.25C5.52944 2.25 1.5 6.27944 1.5 11.25C1.5 16.2206 5.52944 20.25 10.5 20.25Z" fill="#E9EEF2"/>
<path d="M10.5 20.25C10.4005 20.25 10.3052 20.2105 10.2348 20.1402C10.1645 20.0698 10.125 19.9745 10.125 19.875V19.125C10.125 19.0255 10.1645 18.9302 10.2348 18.8598C10.3052 18.7895 10.4005 18.75 10.5 18.75C10.5995 18.75 10.6948 18.7895 10.7652 18.8598C10.8355 18.9302 10.875 19.0255 10.875 19.125V19.875C10.875 19.9745 10.8355 20.0698 10.7652 20.1402C10.6948 20.2105 10.5995 20.25 10.5 20.25ZM10.5 3.75C10.4005 3.75 10.3052 3.71049 10.2348 3.64016C10.1645 3.56984 10.125 3.47446 10.125 3.375V2.625C10.125 2.52554 10.1645 2.43016 10.2348 2.35984C10.3052 2.28951 10.4005 2.25 10.5 2.25C10.5995 2.25 10.6948 2.28951 10.7652 2.35984C10.8355 2.43016 10.875 2.52554 10.875 2.625V3.375C10.875 3.47446 10.8355 3.56984 10.7652 3.64016C10.6948 3.71049 10.5995 3.75 10.5 3.75ZM2.625 11.625H1.875C1.77554 11.625 1.68016 11.5855 1.60984 11.5152C1.53951 11.4448 1.5 11.3495 1.5 11.25C1.5 11.1505 1.53951 11.0552 1.60984 10.9848C1.68016 10.9145 1.77554 10.875 1.875 10.875H2.625C2.72446 10.875 2.81984 10.9145 2.89016 10.9848C2.96049 11.0552 3 11.1505 3 11.25C3 11.3495 2.96049 11.4448 2.89016 11.5152C2.81984 11.5855 2.72446 11.625 2.625 11.625ZM19.125 11.625H18.375C18.2755 11.625 18.1802 11.5855 18.1098 11.5152C18.0395 11.4448 18 11.3495 18 11.25C18 11.1505 18.0395 11.0552 18.1098 10.9848C18.1802 10.9145 18.2755 10.875 18.375 10.875H19.125C19.2245 10.875 19.3198 10.9145 19.3902 10.9848C19.4605 11.0552 19.5 11.1505 19.5 11.25C19.5 11.3495 19.4605 11.4448 19.3902 11.5152C19.3198 11.5855 19.2245 11.625 19.125 11.625ZM4.93153 6.05653C4.88228 6.05659 4.83349 6.04692 4.78799 6.02808C4.74248 6.00923 4.70115 5.98157 4.66636 5.9467L4.13606 5.41641C4.06573 5.34608 4.02621 5.2507 4.0262 5.15124C4.0262 5.102 4.03589 5.05323 4.05473 5.00773C4.07358 4.96223 4.1012 4.92089 4.13602 4.88606C4.17084 4.85124 4.21217 4.82361 4.25767 4.80476C4.30317 4.78591 4.35193 4.77621 4.40118 4.7762C4.50064 4.77619 4.59603 4.81569 4.66636 4.88602L5.1967 5.41636C5.24915 5.4688 5.28487 5.53562 5.29934 5.60837C5.31381 5.68111 5.30638 5.75652 5.278 5.82504C5.24961 5.89356 5.20155 5.95213 5.13988 5.99334C5.07821 6.03454 5.0057 6.05653 4.93153 6.05653ZM16.5988 17.7238C16.5495 17.7238 16.5008 17.7142 16.4553 17.6953C16.4098 17.6765 16.3684 17.6488 16.3336 17.614L15.8033 17.0836C15.7685 17.0488 15.7409 17.0075 15.722 16.962C15.7032 16.9165 15.6935 16.8677 15.6935 16.8185C15.6935 16.7692 15.7032 16.7205 15.722 16.675C15.7409 16.6295 15.7685 16.5881 15.8033 16.5533C15.8381 16.5185 15.8795 16.4909 15.925 16.472C15.9705 16.4532 16.0192 16.4435 16.0685 16.4435C16.1177 16.4435 16.1665 16.4532 16.212 16.472C16.2575 16.4909 16.2988 16.5185 16.3336 16.5533L16.8639 17.0836C16.9164 17.136 16.9521 17.2029 16.9666 17.2756C16.981 17.3483 16.9736 17.4237 16.9452 17.4923C16.9169 17.5608 16.8688 17.6194 16.8071 17.6606C16.7454 17.7018 16.6729 17.7238 16.5988 17.7238ZM4.40123 17.7238C4.32706 17.7238 4.25456 17.7018 4.19289 17.6606C4.13122 17.6194 4.08315 17.5608 4.05477 17.4923C4.02638 17.4237 4.01896 17.3483 4.03343 17.2756C4.0479 17.2029 4.08362 17.136 4.13606 17.0836L4.66636 16.5533C4.70118 16.5185 4.74252 16.4909 4.78802 16.472C4.83352 16.4532 4.88228 16.4435 4.93153 16.4435C4.98078 16.4435 5.02954 16.4532 5.07504 16.472C5.12054 16.4909 5.16188 16.5185 5.1967 16.5533C5.23153 16.5881 5.25915 16.6295 5.278 16.675C5.29684 16.7205 5.30654 16.7692 5.30654 16.8185C5.30654 16.8677 5.29684 16.9165 5.278 16.962C5.25915 17.0075 5.23153 17.0488 5.1967 17.0836L4.66636 17.614C4.63157 17.6488 4.59024 17.6765 4.54475 17.6953C4.49925 17.7142 4.45048 17.7238 4.40123 17.7238ZM16.0685 6.05653C15.9943 6.05653 15.9218 6.03454 15.8601 5.99334C15.7985 5.95213 15.7504 5.89356 15.722 5.82504C15.6936 5.75652 15.6862 5.68111 15.7007 5.60837C15.7151 5.53562 15.7508 5.4688 15.8033 5.41636L16.3336 4.88602C16.404 4.81569 16.4994 4.77619 16.5988 4.7762C16.6983 4.77621 16.7937 4.81573 16.864 4.88606C16.9343 4.9564 16.9738 5.05179 16.9738 5.15124C16.9738 5.2507 16.9343 5.34608 16.8639 5.41641L16.3336 5.9467C16.2989 5.98157 16.2575 6.00923 16.212 6.02808C16.1665 6.04692 16.1177 6.05659 16.0685 6.05653Z" fill="#9AA3A8"/>
<path d="M4.40114 17.7239C4.32697 17.7239 4.25446 17.7019 4.19279 17.6607C4.13112 17.6195 4.08305 17.561 4.05467 17.4924C4.02629 17.4239 4.01886 17.3485 4.03333 17.2758C4.0478 17.203 4.08352 17.1362 4.13597 17.0838L4.66626 16.5535C4.70108 16.5186 4.74243 16.491 4.78792 16.4722C4.83342 16.4533 4.88219 16.4436 4.93143 16.4436C4.98068 16.4436 5.02945 16.4533 5.07494 16.4722C5.12044 16.491 5.16178 16.5186 5.19661 16.5535C5.23143 16.5883 5.25905 16.6296 5.2779 16.6751C5.29674 16.7206 5.30644 16.7694 5.30644 16.8186C5.30644 16.8679 5.29674 16.9166 5.2779 16.9621C5.25905 17.0076 5.23143 17.049 5.19661 17.0838L4.66626 17.6142C4.63148 17.649 4.59015 17.6766 4.54465 17.6955C4.49915 17.7143 4.45038 17.724 4.40114 17.7239ZM16.0684 6.0567C15.9942 6.0567 15.9217 6.03471 15.86 5.9935C15.7984 5.9523 15.7503 5.89373 15.7219 5.82521C15.6935 5.75668 15.6861 5.68128 15.7006 5.60853C15.715 5.53579 15.7508 5.46897 15.8032 5.41653L16.3335 4.88618C16.4039 4.81586 16.4993 4.77636 16.5987 4.77637C16.6982 4.77638 16.7936 4.81589 16.8639 4.88623C16.9342 4.95656 16.9737 5.05195 16.9737 5.15141C16.9737 5.25087 16.9342 5.34625 16.8638 5.41657L16.3335 5.94687C16.2988 5.98174 16.2574 6.00939 16.2119 6.02824C16.1664 6.04709 16.1176 6.05676 16.0684 6.0567ZM11.5151 7.23499L10.7651 6.48499C10.7303 6.45017 10.6889 6.42255 10.6434 6.4037C10.5979 6.38485 10.5491 6.37515 10.4999 6.37515C10.4507 6.37515 10.4019 6.38485 10.3564 6.4037C10.3109 6.42255 10.2696 6.45017 10.2347 6.48499L9.48473 7.23499C9.4144 7.30532 9.37489 7.40071 9.37489 7.50017C9.37489 7.59962 9.4144 7.69501 9.48473 7.76534C9.55506 7.83567 9.65044 7.87518 9.7499 7.87518C9.84936 7.87518 9.94475 7.83567 10.0151 7.76534L10.1249 7.65551V10.8752C10.1249 10.9746 10.1644 11.07 10.2347 11.1403C10.3051 11.2107 10.4004 11.2502 10.4999 11.2502C10.5994 11.2502 10.6947 11.2107 10.7651 11.1403C10.8354 11.07 10.8749 10.9746 10.8749 10.8752V7.65551L10.9847 7.76534C11.0551 7.83567 11.1504 7.87518 11.2499 7.87518C11.3494 7.87518 11.4447 7.83567 11.5151 7.76534C11.5854 7.69501 11.6249 7.59962 11.6249 7.50017C11.6249 7.40071 11.5854 7.30532 11.5151 7.23499Z" fill="#9AA3A8"/>
<path d="M10.125 10.875H5.03036L5.14019 10.7652C5.21051 10.6949 5.25002 10.5995 5.25002 10.5C5.25002 10.4006 5.21051 10.3052 5.14019 10.2348C5.06986 10.1645 4.97447 10.125 4.87501 10.125C4.77555 10.125 4.68017 10.1645 4.60984 10.2348L3.85984 10.9848C3.82502 11.0197 3.79739 11.061 3.77855 11.1065C3.7597 11.152 3.75 11.2008 3.75 11.25C3.75 11.2993 3.7597 11.348 3.77855 11.3935C3.79739 11.439 3.82502 11.4804 3.85984 11.5152L4.60984 12.2652C4.64466 12.3 4.68601 12.3276 4.7315 12.3465C4.777 12.3653 4.82577 12.375 4.87501 12.375C4.92426 12.375 4.97303 12.3653 5.01852 12.3465C5.06402 12.3276 5.10536 12.3 5.14019 12.2652C5.17501 12.2304 5.20263 12.189 5.22148 12.1435C5.24032 12.098 5.25002 12.0493 5.25002 12C5.25002 11.9508 5.24032 11.902 5.22148 11.8565C5.20263 11.811 5.17501 11.7697 5.14019 11.7348L5.03036 11.625H10.125C10.2245 11.625 10.3199 11.5855 10.3902 11.5152C10.4605 11.4448 10.5 11.3495 10.5 11.25C10.5 11.1506 10.4605 11.0552 10.3902 10.9848C10.3199 10.9145 10.2245 10.875 10.125 10.875Z" fill="#9AA3A8"/>
<path d="M10.5 1.125C4.90814 1.125 0.375 5.65814 0.375 11.25C0.375 16.8419 4.90814 21.375 10.5 21.375C16.0919 21.375 20.625 16.8419 20.625 11.25C20.625 5.65814 16.0919 1.125 10.5 1.125ZM10.5 19.875C8.79414 19.875 7.12658 19.3692 5.70821 18.4214C4.28983 17.4737 3.18434 16.1267 2.53154 14.5506C1.87873 12.9746 1.70793 11.2404 2.04073 9.56735C2.37352 7.89426 3.19498 6.35743 4.4012 5.1512C5.60743 3.94498 7.14426 3.12352 8.81735 2.79073C10.4904 2.45793 12.2246 2.62873 13.8006 3.28154C15.3767 3.93434 16.7237 5.03983 17.6714 6.45821C18.6192 7.87658 19.125 9.54414 19.125 11.25C19.125 13.5375 18.2163 15.7313 16.5988 17.3488C14.9813 18.9663 12.7875 19.875 10.5 19.875Z" fill="#FABE2C"/>
<path d="M10.5 12C10.9142 12 11.25 11.6642 11.25 11.25C11.25 10.8358 10.9142 10.5 10.5 10.5C10.0858 10.5 9.75 10.8358 9.75 11.25C9.75 11.6642 10.0858 12 10.5 12Z" fill="#FABE2C"/>
<path d="M20.625 15.375H15.375C15.2755 15.375 15.1802 15.3355 15.1098 15.2652C15.0395 15.1948 15 15.0995 15 15V14.25C15.0003 13.9517 15.119 13.6658 15.3299 13.4549C15.5408 13.244 15.8267 13.1253 16.125 13.125H19.875C20.1733 13.1253 20.4592 13.244 20.6701 13.4549C20.881 13.6658 20.9997 13.9517 21 14.25V15C21 15.0995 20.9605 15.1948 20.8902 15.2652C20.8198 15.3355 20.7245 15.375 20.625 15.375ZM15.75 14.625H20.25V14.25C20.2499 14.1506 20.2103 14.0553 20.14 13.985C20.0697 13.9147 19.9744 13.8751 19.875 13.875H16.125C16.0256 13.8751 15.9303 13.9147 15.86 13.985C15.7897 14.0553 15.7501 14.1506 15.75 14.25V14.625ZM12.75 19.125H23.25V22.125H12.75V19.125Z" fill="#FFE88C"/>
<path d="M13.125 14.625H22.875C23.0739 14.625 23.2647 14.704 23.4053 14.8447C23.546 14.9853 23.625 15.1761 23.625 15.375V19.125H12.375V15.375C12.375 15.1761 12.454 14.9853 12.5947 14.8447C12.7353 14.704 12.9261 14.625 13.125 14.625Z" fill="#FABE2C"/>
<path d="M19.875 18.375H21.375V19.875H19.875V18.375ZM14.625 18.375H16.125V19.875H14.625V18.375Z" fill="#FABE2C"/>
</svg>
