<svg width="80" height="80" viewBox="0 0 80 80" fill="none" xmlns="http://www.w3.org/2000/svg">
<g filter="url(#filter0_d_473_4803)">
<circle cx="40" cy="36" r="30" fill="#FAFAFA"/>
</g>
<path d="M50.7539 21.1191H42.5508C38.5934 21.1191 35.3047 24.3395 35.3047 28.2969C35.3047 31.9068 38.0517 34.9029 41.5254 35.4015V38.5508C41.5252 38.7536 41.5853 38.9519 41.698 39.1205C41.8106 39.2892 41.9708 39.4205 42.1583 39.498C42.5365 39.6559 42.9801 39.5713 43.2758 39.2757L46.6523 35.8992L47.0769 35.4746H50.7539C54.7113 35.4746 58 32.2543 58 28.2969C58 24.3395 54.7113 21.1191 50.7539 21.1191Z" fill="#FED843"/>
<path d="M50.7539 35.4746C54.7113 35.4746 58 32.2543 58 28.2969C58 24.3395 54.7113 21.1191 50.7539 21.1191H46.6523V35.8992L47.0769 35.4746H50.7539Z" fill="#FABE2C"/>
<path d="M49.1133 44.7031V48.8047C49.1133 50.5889 47.6565 51.8809 46.0515 51.8809C40.1445 51.8809 34.3818 49.0884 30.0957 44.8193C25.8096 40.5503 23 34.8047 23 28.8978C23 27.2011 24.3802 25.8359 26.0762 25.8359H30.1777C30.6193 25.8359 31.011 26.1183 31.1498 26.5366L33.2006 32.6746C33.3011 32.9754 33.2566 33.3049 33.0816 33.5681L31.3426 36.1773C32.0016 37.5596 33.1678 39.0703 34.5145 40.4006C35.8618 41.7302 37.3896 42.8793 38.7719 43.5383L41.3812 41.7992C41.6457 41.6249 41.9738 41.5791 42.2746 41.6803L48.427 43.7311C48.8453 43.8698 49.1133 44.2615 49.1133 44.7031Z" fill="#2C2E3D"/>
<path d="M49.1133 44.7029V48.8045C49.1133 50.5887 47.6565 51.8807 46.0515 51.8807C40.1445 51.8807 34.3818 49.0882 30.0957 44.8191L34.5145 40.4004C35.8618 41.73 37.3896 42.8791 38.7719 43.5381L41.3812 41.799C41.6457 41.6247 41.9738 41.5789 42.2746 41.6801L48.427 43.7309C48.8453 43.8696 49.1133 44.2613 49.1133 44.7029Z" fill="#2C2E3D"/>
<path d="M42.5508 29.3223C43.1171 29.3223 43.5762 28.8632 43.5762 28.2969C43.5762 27.7306 43.1171 27.2715 42.5508 27.2715C41.9845 27.2715 41.5254 27.7306 41.5254 28.2969C41.5254 28.8632 41.9845 29.3223 42.5508 29.3223Z" fill="#613D5C"/>
<path d="M46.6523 29.3223C47.2187 29.3223 47.6777 28.8632 47.6777 28.2969C47.6777 27.7306 47.2187 27.2715 46.6523 27.2715C46.086 27.2715 45.627 27.7306 45.627 28.2969C45.627 28.8632 46.086 29.3223 46.6523 29.3223Z" fill="#613D5C"/>
<path d="M47.6777 28.2969C47.6777 27.7306 47.2186 27.2715 46.6523 27.2715V29.3223C47.2186 29.3223 47.6777 28.8632 47.6777 28.2969Z" fill="#4B2746"/>
<path d="M50.7539 29.3223C51.3202 29.3223 51.7793 28.8632 51.7793 28.2969C51.7793 27.7306 51.3202 27.2715 50.7539 27.2715C50.1876 27.2715 49.7285 27.7306 49.7285 28.2969C49.7285 28.8632 50.1876 29.3223 50.7539 29.3223Z" fill="#4B2746"/>
<defs>
<filter id="filter0_d_473_4803" x="0" y="0" width="80" height="80" filterUnits="userSpaceOnUse" color-interpolation-filters="sRGB">
<feFlood flood-opacity="0" result="BackgroundImageFix"/>
<feColorMatrix in="SourceAlpha" type="matrix" values="0 0 0 0 0 0 0 0 0 0 0 0 0 0 0 0 0 0 127 0" result="hardAlpha"/>
<feOffset dy="4"/>
<feGaussianBlur stdDeviation="5"/>
<feComposite in2="hardAlpha" operator="out"/>
<feColorMatrix type="matrix" values="0 0 0 0 0 0 0 0 0 0 0 0 0 0 0 0 0 0 0.05 0"/>
<feBlend mode="normal" in2="BackgroundImageFix" result="effect1_dropShadow_473_4803"/>
<feBlend mode="normal" in="SourceGraphic" in2="effect1_dropShadow_473_4803" result="shape"/>
</filter>
</defs>
</svg>
