<svg width="55" height="55" viewBox="0 0 55 55" fill="none" xmlns="http://www.w3.org/2000/svg">
<g filter="url(#filter0_d_1096_3944)">
<circle cx="27.5" cy="23.5" r="17.5" fill="#FAFAFA"/>
</g>
<path d="M37.15 18.45C36.6075 17.485 36.0188 17.3075 34.82 17.24C33.6225 17.1588 30.6112 17.125 28.0025 17.125C25.3887 17.125 22.3762 17.1588 21.18 17.2388C19.9837 17.3075 19.3937 17.4837 18.8462 18.45C18.2875 19.4137 18 21.0738 18 23.9963V24.0063C18 26.9163 18.2875 28.5887 18.8462 29.5425C19.3937 30.5075 19.9825 30.6825 21.1788 30.7638C22.3762 30.8338 25.3887 30.875 28.0025 30.875C30.6112 30.875 33.6225 30.8337 34.8212 30.765C36.02 30.6837 36.6087 30.5088 37.1513 29.5438C37.715 28.59 38 26.9175 38 24.0075V23.9975C38 21.0738 37.715 19.4137 37.15 18.45Z" fill="#2C2E3D"/>
<path d="M25.5 27.75V20.25L31.75 24L25.5 27.75Z" fill="#FAFAFA"/>
<defs>
<filter id="filter0_d_1096_3944" x="0" y="0" width="55" height="55" filterUnits="userSpaceOnUse" color-interpolation-filters="sRGB">
<feFlood flood-opacity="0" result="BackgroundImageFix"/>
<feColorMatrix in="SourceAlpha" type="matrix" values="0 0 0 0 0 0 0 0 0 0 0 0 0 0 0 0 0 0 127 0" result="hardAlpha"/>
<feOffset dy="4"/>
<feGaussianBlur stdDeviation="5"/>
<feComposite in2="hardAlpha" operator="out"/>
<feColorMatrix type="matrix" values="0 0 0 0 0 0 0 0 0 0 0 0 0 0 0 0 0 0 0.05 0"/>
<feBlend mode="normal" in2="BackgroundImageFix" result="effect1_dropShadow_1096_3944"/>
<feBlend mode="normal" in="SourceGraphic" in2="effect1_dropShadow_1096_3944" result="shape"/>
</filter>
</defs>
</svg>
